<svg version="1.2" xmlns="http://www.w3.org/2000/svg" viewBox="0 0 537 537" width="537" height="537">
	<title>icon</title>
	<style>
		.s0 { fill: #000000;stroke: #000000;stroke-width: .4 } 
		.s1 { fill: #000000;stroke: #25310c;stroke-width: .4 } 
		.s2 { fill: #000000;stroke: #527f23;stroke-width: .4 } 
		.s3 { fill: #000000;stroke: #77d129;stroke-width: .4 } 
		.s4 { fill: #000000;stroke: #599d24;stroke-width: .4 } 
		.s5 { fill: #000000;stroke: #3a580f;stroke-width: .4 } 
		.s6 { fill: #000000;stroke: #76cf28;stroke-width: .4 } 
		.s7 { fill: #000000;stroke: #3c5309;stroke-width: .4 } 
		.s8 { fill: #000000;stroke: #3b6511;stroke-width: .4 } 
		.s9 { fill: #000000;stroke: #54961d;stroke-width: .4 } 
		.s10 { fill: #000000;stroke: #326610;stroke-width: .4 } 
		.s11 { fill: #000000;stroke: #3a6f17;stroke-width: .4 } 
		.s12 { fill: #000000;stroke: #7ad229;stroke-width: .4 } 
		.s13 { fill: #000000;stroke: #407216;stroke-width: .4 } 
		.s14 { fill: #000000;stroke: #305e0d;stroke-width: .4 } 
		.s15 { fill: #000000;stroke: #2a7a14;stroke-width: .4 } 
		.s16 { fill: #000000;stroke: #486f1f;stroke-width: .4 } 
		.s17 { fill: #000000;stroke: #41630d;stroke-width: .4 } 
		.s18 { fill: #000000;stroke: #295a0b;stroke-width: .4 } 
		.s19 { fill: #000000;stroke: #20680e;stroke-width: .4 } 
		.s20 { fill: #000000;stroke: #146012;stroke-width: .4 } 
		.s21 { fill: #000000;stroke: #052f02;stroke-width: .4 } 
		.s22 { fill: #000000;stroke: #031c02;stroke-width: .4 } 
		.s23 { fill: #000000;stroke: #357a1d;stroke-width: .4 } 
		.s24 { fill: #000000;stroke: #79d529;stroke-width: .4 } 
		.s25 { fill: #000000;stroke: #165d0e;stroke-width: .4 } 
		.s26 { fill: #000000;stroke: #385c0d;stroke-width: .4 } 
		.s27 { fill: #000000;stroke: #064303;stroke-width: .4 } 
		.s28 { fill: #000000;stroke: #347014;stroke-width: .4 } 
		.s29 { fill: #000000;stroke: #64a126;stroke-width: .4 } 
		.s30 { fill: #000000;stroke: #2e570a;stroke-width: .4 } 
		.s31 { fill: #000000;stroke: #175308;stroke-width: .4 } 
		.s32 { fill: #000000;stroke: #2d4d0f;stroke-width: .4 } 
		.s33 { fill: #000000;stroke: #76cf29;stroke-width: .4 } 
		.s34 { fill: #000000;stroke: #174c07;stroke-width: .4 } 
		.s35 { fill: #000000;stroke: #34660c;stroke-width: .4 } 
		.s36 { fill: #000000;stroke: #48630c;stroke-width: .4 } 
		.s37 { fill: #000000;stroke: #596f2d;stroke-width: .4 } 
		.s38 { fill: #000000;stroke: #407e19;stroke-width: .4 } 
		.s39 { fill: #000000;stroke: #395e16;stroke-width: .4 } 
		.s40 { fill: #000000;stroke: #1c4d07;stroke-width: .4 } 
		.s41 { fill: #000000;stroke: #3e6c15;stroke-width: .4 } 
		.s42 { fill: #000000;stroke: #0a4702;stroke-width: .4 } 
		.s43 { fill: #000000;stroke: #5f8033;stroke-width: .4 } 
		.s44 { fill: #000000;stroke: #165b07;stroke-width: .4 } 
		.s45 { fill: #000000;stroke: #759730;stroke-width: .4 } 
		.s46 { fill: #000000;stroke: #3d4d0b;stroke-width: .4 } 
		.s47 { fill: #000000;stroke: #0b3103;stroke-width: .4 } 
		.s48 { fill: #000000;stroke: #265909;stroke-width: .4 } 
		.s49 { fill: #000000;stroke: #75c52a;stroke-width: .4 } 
		.s50 { fill: #000000;stroke: #284f06;stroke-width: .4 } 
		.s51 { fill: #000000;stroke: #6d8a2b;stroke-width: .4 } 
		.s52 { fill: #000000;stroke: #426d0f;stroke-width: .4 } 
		.s53 { fill: #000000;stroke: #396411;stroke-width: .4 } 
		.s54 { fill: #000000;stroke: #092a01;stroke-width: .4 } 
		.s55 { fill: #000000;stroke: #124f08;stroke-width: .4 } 
		.s56 { fill: #000000;stroke: #376c0e;stroke-width: .4 } 
		.s57 { fill: #000000;stroke: #5b842e;stroke-width: .4 } 
		.s58 { fill: #000000;stroke: #1e500f;stroke-width: .4 } 
		.s59 { fill: #000000;stroke: #77cd29;stroke-width: .4 } 
		.s60 { fill: #000000;stroke: #233b0a;stroke-width: .4 } 
		.s61 { fill: #000000;stroke: #5eaa27;stroke-width: .4 } 
		.s62 { fill: #000000;stroke: #55841b;stroke-width: .4 } 
		.s63 { fill: #000000;stroke: #112602;stroke-width: .4 } 
		.s64 { fill: #000000;stroke: #519422;stroke-width: .4 } 
		.s65 { fill: #000000;stroke: #193b05;stroke-width: .4 } 
		.s66 { fill: #000000;stroke: #74c62a;stroke-width: .4 } 
		.s67 { fill: #000000;stroke: #35680e;stroke-width: .4 } 
		.s68 { fill: #000000;stroke: #266e18;stroke-width: .4 } 
		.s69 { fill: #000000;stroke: #0e4903;stroke-width: .4 } 
		.s70 { fill: #000000;stroke: #1b3504;stroke-width: .4 } 
		.s71 { fill: #000000;stroke: #304808;stroke-width: .4 } 
		.s72 { fill: #000000;stroke: #6da328;stroke-width: .4 } 
		.s73 { fill: #000000;stroke: #467f15;stroke-width: .4 } 
		.s74 { fill: #000000;stroke: #75ca27;stroke-width: .4 } 
		.s75 { fill: #000000;stroke: #063f05;stroke-width: .4 } 
		.s76 { fill: #000000;stroke: #0e5a0a;stroke-width: .4 } 
		.s77 { fill: #000000;stroke: #2e5d0e;stroke-width: .4 } 
		.s78 { fill: #000000;stroke: #1f5b08;stroke-width: .4 } 
		.s79 { fill: #000000;stroke: #3f6d0d;stroke-width: .4 } 
		.s80 { fill: #000000;stroke: #336c0c;stroke-width: .4 } 
		.s81 { fill: #000000;stroke: #366a0f;stroke-width: .4 } 
		.s82 { fill: #000000;stroke: #328814;stroke-width: .4 } 
		.s83 { fill: #000000;stroke: #79d028;stroke-width: .4 } 
		.s84 { fill: #000000;stroke: #368517;stroke-width: .4 } 
		.s85 { fill: #000000;stroke: #155004;stroke-width: .4 } 
		.s86 { fill: #000000;stroke: #569122;stroke-width: .4 } 
		.s87 { fill: #000000;stroke: #72a22a;stroke-width: .4 } 
		.s88 { fill: #000000;stroke: #307b15;stroke-width: .4 } 
		.s89 { fill: #000000;stroke: #3c6010;stroke-width: .4 } 
		.s90 { fill: #000000;stroke: #78ce29;stroke-width: .4 } 
		.s91 { fill: #000000;stroke: #2e4d07;stroke-width: .4 } 
		.s92 { fill: #000000;stroke: #19730e;stroke-width: .4 } 
		.s93 { fill: #000000;stroke: #47781d;stroke-width: .4 } 
		.s94 { fill: #000000;stroke: #78d129;stroke-width: .4 } 
		.s95 { fill: #000000;stroke: #1f330a;stroke-width: .4 } 
		.s96 { fill: #000000;stroke: #6da422;stroke-width: .4 } 
		.s97 { fill: #000000;stroke: #124306;stroke-width: .4 } 
		.s98 { fill: #000000;stroke: #3b6915;stroke-width: .4 } 
		.s99 { fill: #000000;stroke: #112301;stroke-width: .4 } 
		.s100 { fill: #000000;stroke: #1c3d07;stroke-width: .4 } 
		.s101 { fill: #000000;stroke: #6b9f25;stroke-width: .4 } 
		.s102 { fill: #000000;stroke: #366610;stroke-width: .4 } 
		.s103 { fill: #000000;stroke: #1c5205;stroke-width: .4 } 
		.s104 { fill: #000000;stroke: #2e5610;stroke-width: .4 } 
		.s105 { fill: #000000;stroke: #13450c;stroke-width: .4 } 
		.s106 { fill: #000000;stroke: #36500b;stroke-width: .4 } 
		.s107 { fill: #000000;stroke: #21620d;stroke-width: .4 } 
		.s108 { fill: #000000;stroke: #5e842a;stroke-width: .4 } 
		.s109 { fill: #000000;stroke: #487717;stroke-width: .4 } 
		.s110 { fill: #000000;stroke: #31640c;stroke-width: .4 } 
		.s111 { fill: #000000;stroke: #105408;stroke-width: .4 } 
		.s112 { fill: #000000;stroke: #596b12;stroke-width: .4 } 
		.s113 { fill: #000000;stroke: #0b7312;stroke-width: .4 } 
		.s114 { fill: #000000;stroke: #1c6314;stroke-width: .4 } 
		.s115 { fill: #000000;stroke: #20380c;stroke-width: .4 } 
		.s116 { fill: #000000;stroke: #4d9718;stroke-width: .4 } 
		.s117 { fill: #000000;stroke: #6a9322;stroke-width: .4 } 
		.s118 { fill: #000000;stroke: #185309;stroke-width: .4 } 
		.s119 { fill: #000000;stroke: #406d0e;stroke-width: .4 } 
		.s120 { fill: #000000;stroke: #185f0a;stroke-width: .4 } 
		.s121 { fill: #000000;stroke: #4c4c0a;stroke-width: .4 } 
		.s122 { fill: #000000;stroke: #3b660d;stroke-width: .4 } 
		.s123 { fill: #000000;stroke: #196209;stroke-width: .4 } 
		.s124 { fill: #000000;stroke: #355e09;stroke-width: .4 } 
		.s125 { fill: #000000;stroke: #35710e;stroke-width: .4 } 
		.s126 { fill: #000000;stroke: #52912e;stroke-width: .4 } 
		.s127 { fill: #000000;stroke: #122200;stroke-width: .4 } 
		.s128 { fill: #000000;stroke: #3c6614;stroke-width: .4 } 
		.s129 { fill: #000000;stroke: #204e10;stroke-width: .4 } 
		.s130 { fill: #000000;stroke: #22640b;stroke-width: .4 } 
		.s131 { fill: #000000;stroke: #0d1d02;stroke-width: .4 } 
		.s132 { fill: #000000;stroke: #77cb29;stroke-width: .4 } 
		.s133 { fill: #000000;stroke: #3f6a0e;stroke-width: .4 } 
		.s134 { fill: #000000;stroke: #415e0c;stroke-width: .4 } 
		.s135 { fill: #000000;stroke: #40582a;stroke-width: .4 } 
		.s136 { fill: #000000;stroke: #28650b;stroke-width: .4 } 
		.s137 { fill: #000000;stroke: #15750d;stroke-width: .4 } 
		.s138 { fill: #000000;stroke: #1b760f;stroke-width: .4 } 
		.s139 { fill: #000000;stroke: #589625;stroke-width: .4 } 
		.s140 { fill: #000000;stroke: #5f782c;stroke-width: .4 } 
		.s141 { fill: #000000;stroke: #1d2a07;stroke-width: .4 } 
		.s142 { fill: #000000;stroke: #407e1f;stroke-width: .4 } 
		.s143 { fill: #25310c;stroke: #000000 } 
		.s144 { fill: #527f23;stroke: #000000 } 
		.s145 { fill: #77d129;stroke: #000000 } 
		.s146 { fill: #599d24;stroke: #000000 } 
		.s147 { fill: #3a580f;stroke: #000000 } 
		.s148 { fill: #76cf28;stroke: #000000 } 
		.s149 { fill: #3c5309;stroke: #000000 } 
		.s150 { fill: #3b6511;stroke: #000000 } 
		.s151 { fill: #54961d;stroke: #000000 } 
		.s152 { fill: #326610;stroke: #000000 } 
		.s153 { fill: #3a6f17;stroke: #000000 } 
		.s154 { fill: #7ad229;stroke: #000000 } 
		.s155 { fill: #407216;stroke: #000000 } 
		.s156 { fill: #305e0d;stroke: #000000 } 
		.s157 { fill: #2a7a14;stroke: #000000 } 
		.s158 { fill: #486f1f;stroke: #000000 } 
		.s159 { fill: #41630d;stroke: #000000 } 
		.s160 { fill: #295a0b;stroke: #000000 } 
		.s161 { fill: #000000;stroke: #000000 } 
		.s162 { fill: #20680e;stroke: #000000 } 
		.s163 { fill: #146012;stroke: #000000 } 
		.s164 { fill: #052f02;stroke: #000000 } 
		.s165 { fill: #031c02;stroke: #000000 } 
		.s166 { fill: #357a1d;stroke: #000000 } 
		.s167 { fill: #79d529;stroke: #000000 } 
		.s168 { fill: #165d0e;stroke: #000000 } 
		.s169 { fill: #385c0d;stroke: #000000 } 
		.s170 { fill: #064303;stroke: #000000 } 
		.s171 { fill: #347014;stroke: #000000 } 
		.s172 { fill: #64a126;stroke: #000000 } 
		.s173 { fill: #2e570a;stroke: #000000 } 
		.s174 { fill: #175308;stroke: #000000 } 
		.s175 { fill: #2d4d0f;stroke: #000000 } 
		.s176 { fill: #76cf29;stroke: #000000 } 
		.s177 { fill: #174c07;stroke: #000000 } 
		.s178 { fill: #34660c;stroke: #000000 } 
		.s179 { fill: #48630c;stroke: #000000 } 
		.s180 { fill: #596f2d;stroke: #000000 } 
		.s181 { fill: #407e19;stroke: #000000 } 
		.s182 { fill: #395e16;stroke: #000000 } 
		.s183 { fill: #1c4d07;stroke: #000000 } 
		.s184 { fill: #3e6c15;stroke: #000000 } 
		.s185 { fill: #0a4702;stroke: #000000 } 
		.s186 { fill: #5f8033;stroke: #000000 } 
		.s187 { fill: #165b07;stroke: #000000 } 
		.s188 { fill: #759730;stroke: #000000 } 
		.s189 { fill: #3d4d0b;stroke: #000000 } 
		.s190 { fill: #0b3103;stroke: #000000 } 
		.s191 { fill: #265909;stroke: #000000 } 
		.s192 { fill: #75c52a;stroke: #000000 } 
		.s193 { fill: #284f06;stroke: #000000 } 
		.s194 { fill: #6d8a2b;stroke: #000000 } 
		.s195 { fill: #426d0f;stroke: #000000 } 
		.s196 { fill: #396411;stroke: #000000 } 
		.s197 { fill: #092a01;stroke: #000000 } 
		.s198 { fill: #124f08;stroke: #000000 } 
		.s199 { fill: #376c0e;stroke: #000000 } 
		.s200 { fill: #5b842e;stroke: #000000 } 
		.s201 { fill: #1e500f;stroke: #000000 } 
		.s202 { fill: #77cd29;stroke: #000000 } 
		.s203 { fill: #233b0a;stroke: #000000 } 
		.s204 { fill: #5eaa27;stroke: #000000 } 
		.s205 { fill: #55841b;stroke: #000000 } 
		.s206 { fill: #112602;stroke: #000000 } 
		.s207 { fill: #519422;stroke: #000000 } 
		.s208 { fill: #193b05;stroke: #000000 } 
		.s209 { fill: #74c62a;stroke: #000000 } 
		.s210 { fill: #35680e;stroke: #000000 } 
		.s211 { fill: #266e18;stroke: #000000 } 
		.s212 { fill: #0e4903;stroke: #000000 } 
		.s213 { fill: #1b3504;stroke: #000000 } 
		.s214 { fill: #304808;stroke: #000000 } 
		.s215 { fill: #6da328;stroke: #000000 } 
		.s216 { fill: #467f15;stroke: #000000 } 
		.s217 { fill: #75ca27;stroke: #000000 } 
		.s218 { fill: #063f05;stroke: #000000 } 
		.s219 { fill: #0e5a0a;stroke: #000000 } 
		.s220 { fill: #2e5d0e;stroke: #000000 } 
		.s221 { fill: #1f5b08;stroke: #000000 } 
		.s222 { fill: #3f6d0d;stroke: #000000 } 
		.s223 { fill: #336c0c;stroke: #000000 } 
		.s224 { fill: #366a0f;stroke: #000000 } 
		.s225 { fill: #328814;stroke: #000000 } 
		.s226 { fill: #79d028;stroke: #000000 } 
		.s227 { fill: #368517;stroke: #000000 } 
		.s228 { fill: #155004;stroke: #000000 } 
		.s229 { fill: #569122;stroke: #000000 } 
		.s230 { fill: #72a22a;stroke: #000000 } 
		.s231 { fill: #307b15;stroke: #000000 } 
		.s232 { fill: #3c6010;stroke: #000000 } 
		.s233 { fill: #78ce29;stroke: #000000 } 
		.s234 { fill: #2e4d07;stroke: #000000 } 
		.s235 { fill: #19730e;stroke: #000000 } 
		.s236 { fill: #47781d;stroke: #000000 } 
		.s237 { fill: #78d129;stroke: #000000 } 
		.s238 { fill: #1f330a;stroke: #000000 } 
		.s239 { fill: #6da422;stroke: #000000 } 
		.s240 { fill: #124306;stroke: #000000 } 
		.s241 { fill: #3b6915;stroke: #000000 } 
		.s242 { fill: #112301;stroke: #000000 } 
		.s243 { fill: #1c3d07;stroke: #000000 } 
		.s244 { fill: #6b9f25;stroke: #000000 } 
		.s245 { fill: #366610;stroke: #000000 } 
		.s246 { fill: #1c5205;stroke: #000000 } 
		.s247 { fill: #2e5610;stroke: #000000 } 
		.s248 { fill: #13450c;stroke: #000000 } 
		.s249 { fill: #36500b;stroke: #000000 } 
		.s250 { fill: #21620d;stroke: #000000 } 
		.s251 { fill: #5e842a;stroke: #000000 } 
		.s252 { fill: #487717;stroke: #000000 } 
		.s253 { fill: #31640c;stroke: #000000 } 
		.s254 { fill: #105408;stroke: #000000 } 
		.s255 { fill: #596b12;stroke: #000000 } 
		.s256 { fill: #0b7312;stroke: #000000 } 
		.s257 { fill: #1c6314;stroke: #000000 } 
		.s258 { fill: #20380c;stroke: #000000 } 
		.s259 { fill: #4d9718;stroke: #000000 } 
		.s260 { fill: #6a9322;stroke: #000000 } 
		.s261 { fill: #185309;stroke: #000000 } 
		.s262 { fill: #406d0e;stroke: #000000 } 
		.s263 { fill: #185f0a;stroke: #000000 } 
		.s264 { fill: #4c4c0a;stroke: #000000 } 
		.s265 { fill: #3b660d;stroke: #000000 } 
		.s266 { fill: #196209;stroke: #000000 } 
		.s267 { fill: #355e09;stroke: #000000 } 
		.s268 { fill: #35710e;stroke: #000000 } 
		.s269 { fill: #52912e;stroke: #000000 } 
		.s270 { fill: #122200;stroke: #000000 } 
		.s271 { fill: #3c6614;stroke: #000000 } 
		.s272 { fill: #204e10;stroke: #000000 } 
		.s273 { fill: #22640b;stroke: #000000 } 
		.s274 { fill: #0d1d02;stroke: #000000 } 
		.s275 { fill: #77cb29;stroke: #000000 } 
		.s276 { fill: #3f6a0e;stroke: #000000 } 
		.s277 { fill: #415e0c;stroke: #000000 } 
		.s278 { fill: #40582a;stroke: #000000 } 
		.s279 { fill: #28650b;stroke: #000000 } 
		.s280 { fill: #15750d;stroke: #000000 } 
		.s281 { fill: #1b760f;stroke: #000000 } 
		.s282 { fill: #589625;stroke: #000000 } 
		.s283 { fill: #5f782c;stroke: #000000 } 
		.s284 { fill: #1d2a07;stroke: #000000 } 
		.s285 { fill: #407e1f;stroke: #000000 } 
	</style>
	<path id="Shape 1" fill-rule="evenodd" class="s0" d="m542 0v537h-549v-537z"/>
	<g>
		<path class="s0" d="m62 537h412v-537h-412zm93-524c1.4 12.9 10.5 23.7 12 37 0.6 2.6 1.5 5.9 2 9 1.9 12.3 3.3 24 3 37-0.1 2.6-0.6 5.1-1 7-1.6 17.5-7.9 34-8 51 8.5-4.9 11.5-16.1 17-24 1-2.4 2.7-8.7 6-11 0.7-3 2.4-6.4 3-9 0.6-5 1-9.8 1-15 0-3 0.4-5.6 1-8 0.6-2.4 1.1-4.6 2-7 7.2 5.4 3.2 15.7 7 23 3.8 7.3 7 16 6 25 0.8 8 0.6 16.2-1 24-1.7 19-15 34.3-15 54 0.2 2 0.8 5.4 1 8 0.5 7.4 1.5 14.3 3.8 21.2 2.3 7 1.9 13.4 4.5 20.5 2.7 7.1 0.8 15.8 0.7 23.3-0.1 7.5-2.7 12.8-6.3 18.8-3.5 5.9-12.2 9.4-9.4 1.5 2.7-8 5.1-12 5.7-20.3 0.3-4.9 0.1-10.1 0-15-0.4-18.7-9-34.9-9-54-0.6-5.6-1.5-12.3 0-18 4.5-17 15.4-32.3 14-51-0.2-0.8-1.8-2.5-1-4-2.6 0.2-4.6 2.1-7 3-1.5 2.1-2.8 4-4 6-2 3.3-4.7 6.6-6 10-1.4 6.2-3.3 11.3-5.8 17.2-2.4 5.9-0.8 13.6-5 19-4.2 5.4-11.8 1.3-14-4.4-2.1-5.7-4.9-12.1-4.2-18.8 0.7-6.7 1.3-13.9 3.8-20.2 2.4-6.3 2.6-13.2 4.2-19.8 1.6-6.6 3.4-12.4 4.8-19.2 1.3-6.8 0.7-13.8 2.2-20.8 1.5-7-2.5-15.8-1.3-22.7 1.2-6.9-6.6-15.3-7.7-6.3-1 9-1.5 12.6-3 21-0.9 4.9-2.5 9.7-4 14-3.3 14.8-10.3 24.9-18.9 38.1-8.6 13.2-11.4 30.3-9.1 46.9 0.5 2.1 2.5 5.1 3 8 2.5 14.6 10.7 27.8 11 43 0.4 3.7 1 7.2 0 11-0.3 2.5-1.1 4.5-3 6-2.2 1.8-2.3-3.1-3-7-0.6-4-0.5-8.9-1-13-2.6-23.2-22.7-49.9-15.7-74.7 7-24.8 20-38.1 28.7-62.3 8.7-24.3 7.1-53.6 13-79 0.1-0.5-0.2-1.6 0-2 2.2-6.2 3 2.8 3 3zm196 19c0.7 3.1 2.2 6.3 2 10 0 0.5 0 1 0 1 1 2.3 1.8 5.2 2 8 0.1 0.9 0.2 2.1 0 3 0.8 4.3 2.1 9.4 3 14 1.7 8.8 4.9 17.3 7 26 0.9 2.2 3.2 4.2 4 7 4.3 14.3 10.3 27.6 16.8 41.2 6.4 13.7 9.4 29.9 15.2 43.8 0.7 1.1 3.1 2.1 4 3 0.9-5 2.3-2.4 6-2 8.4 0.9 16.2-3.3 14-12 10.2 7.5 10.1-9.7 13-15 3 4.4 2.7 21.2 11 12 1.5 2.2 4.4 4.3 2 7 0.4 2.7 0.8 4.4 3 6 3.8 2.1 8.2 1.4 12 3 1.3 0.6 3.6 0.6 3 3-2.5-0.3-4.4 1.6-7 1-1 0-2-0.1-3 0-3.8 1.1-7.3 8.8-6 12-3 0.6-4.9-2.6-8-2-6.5 3.2-2.9 13.5-7 18-3.5-7-1.8-20.1-13-19-2.2-1.9-0.6-5.4-4-7-7.3-2.6-17.8-7.4-18 3 0.8 6.3 1 12.5 1 19q0 1.5 0 3c0.7 3.4 2.1 5 3 6 1.6 1.8 1.3 1.6 2 4 0.4 1.4 0.7 2.5 1 4 0.1 0.3 0.8 0.7 1 1 0.7 0.9 2.7 1.2 2 3 2.3-1.9 7.1-5.1 9-1 1.7 2 2.3 8.8 6.2 6.2 4-2.5 2.4-8.1 7.8-7.2 4.5 0.7 2.6 5.5 3 9q2 0 4 0c5 5-4.4 4.7-6 10-5.5-5.1-11.2 6.9-16-2-5.1 7.8-7.3-3.3-7-8-1.3 3.2-5 6.2-8 8-3.7 2.1-7.7 6.6-12 5-10.6 17.4-27.6 30.8-40 47-1.2 2.8-0.1 5.1-3 10-2.9 4.9-9.1 7.4-9.8 14.2-0.6 6.9-6.4 13.2-9 4.6-2.6-8.7-4.7-10.4-5.2-18.8-0.4-2.5-0.2-4.7 0-7 0-23.1 14.4-42.2 16-65 0.4-5.9 0-12.1 0-18 0-15.2-3.6-31.5-11-44-5.4 18.5-8.8 39.4-16.9 57.1-8.1 17.6-21.3 31.8-22.1 51.9 0 2.3-0.2 4.7 0 7 0.8 10.1 4.4 19.1 6 29 0.8 2.5 2.9 6 4 9 5.1 13.6 11.2 39.9-4 48 2.6-25.3-7.1-47.2-14-70-1.3-3.7-2.8-6.4-3-11-0.6-10.5 0.3-22.8 4-32 3.7-9.2 8.2-15.4 13.3-23.7 5-8.4 8.1-16 11.6-25.4 3.6-9.3 4.6-20 7.1-29.9 2.5-10 1.7-23.8 3-34 1.3-10.2 0.2-23.8 8-29 1.6 4.2 1.9 8.7 3 13 4.3 1 7.1 7.4 8.3 14.7 1.2 7.3 7.5 10.4 6 20-1.5 9.6 5.4 26.4 6.7 39.3 1.1 3.5 1.9 4.2 1 8 0.1 0.9 0 2 0 3 0.2 1 0.9 2.4 1 4 3.3 10.4 0.9 25.6-3 37-3.8 11.5-9.9 21.5-10 34 2-0.8 3-3.3 5-4 6.1-12.5 19.7-18.6 27.8-30.2 8-11.7 17.2-25.9 18.2-40.8 0.5-7.9 0.2-16.1 0-24-0.1-6.6-1.7-12.7-3-19-1.6-4.8-2.8-9.7-4-15-2.6-11.7-7.9-24.2-13-35-1.3-2.8-2.9-5.9-4-9-5.1-14.9-11.1-29.4-14-45-0.8-2.3-3.7-4.8-3-8-7.3 0-4.6 9-3 13-0.9 3-5.1 0.5-8 0-2.5 0-8.5 3.5-10 1-1.9-3.2 5.6-13.2 0-17 4 0.2 7.8 1.6 12 1 0.6-3.9 4.1-3.8 7-5 0.2-6.5-0.2-13-2-19-1.3-9.5-2.7-19.5-1-29 3.2 4.7 2.8 11.4 4 17zm-71 48c9.3 26.9 28 49 27 80-1 31-5.4 60-21 86-1.2 3.4-3.8 7.1-6 9-0.8 1.1-2.1 2-3 3-3.4 3.8-6.8 8.1-12 9-1.6-4.3-0.8-9.3-1-14 0.1-2.7 0.6-5 1-7 0-1 0-2 0-3-0.1-2.5 0.8-5.3 1-7 0.4-22-3.6-41.6-11-62-7.3-20.4-0.3-40.1 5-60 0.8-3 1.9-5.4 3-8 2.8-9.1 4.7-18.8 7-28 1.9-7.6 7.6-5 10 2zm-60 42c0.3 0.2 1 0 1 0 2.7 0.7 4.3 3.2 4 6 6.8-0.4 8.1 8.5 10 14 2.7 5.5 5.2 12.1 8 18 3.2 6.8 6.3 13.7 9 21 0.7 2 1.3 4 2 6 1.6 4.4 3.2 9 4 14 0.1 0.5 0 1 0 1 1.4 1.6 1 3.8 1 6 0 1.7-0.2 3.4 0 5 0.7 7.6 1.3 15.8 0 23-0.8 4.6-0.7 9.2-1 14-0.4 5.4-1.8 10.4-4 15-0.1 0.5 0.1 1.5 0 2-1.5 6.6-4.7 13-7 19-2.6 6.7-5.4 13.2-8 20-0.4 0.9-0.6 2.1-1 3-2.5 5.5-6.2 10.2-11 14-2.3 1.9-14.1 9.3-13 1 0.1-0.5 0-1 0-1 0-10.3 1-20.4 1-31-0.3-3.1-1-7.3-1-11 0-21.8-10.1-38.9-13-60-2.8-21.1 8.2-41.3 12-61 0.7-9 2.1-20 3-30 0.2-2 1.1-10.1 4-8zm-130 93c3.7 0.8 7.2-2.4 10-1 1.9 1 1.7 0.4 2 3 0.4 3.3-0.5 6.4 0 10 0.2 1.7 1.3 3.1 1 5-6.1-1-12.1-3.3-18 0 1.9-6.1 2.1-11.8 0-18 0.3-3.7 2.6 0.5 5 1zm50 123c-0.4 2.9 0.7 5.7-1 8 0 0.5 0 1 0 1 0 5.7 2.4 21.3 0 25 0.2 0.4 0 1 0 1 1.5 2 0.7 4.4 1 7 0.7 6.3 1.8 15.7 8 6 6.1-9.7 16.6-18 26-24 1.5 2 1.3 5 0 7-1.8 5.1-5.2 8.2-9 12-6.3 6.3-11.1 13.8-14 22-0.2 1.6 0.4 3.4 0 5-1.1 4.5-11.2 6.7-9 4-10.3-9.6-12.1-27.8-13-41-1.3-7.4-1.3-16.7 0-24 0.3-4.1 0.9-7.8 1-12-1-4.3-2.4-4.2-7-4-2.3 0.4-4.5 1.1-7 1-0.7 3.2-4.4 5.1-3 9-10.8-2.2-10.5 10.9-13 17-3.1-2.8-2.4-8.2-4-12-1.9-4.2-3.7-3.2-7-5-0.8-0.4-2.2 0.3-3 0 1.8-4.2 0.9-9.8-5-9-2.3-0.5-11.8-0.8-13-3-1 0.4-0.5-2.9 1.7-3.3 2.2-0.4 4.9-0.5 7.3-0.7 7-0.5 12.2-3 9-11 11.5 5 9.8-11.2 14-17 2.8 6.1 2 23.3 13 17-2.6 4.9 0.6 11.6 7 10 4.6 0.8 10.1 2.6 13-2 0.1-0.5 0-1 0-1 0.1-3.3 2.1-5.4 3-8 2.2-11.7 8.1-22.1 10-34 0.7-4.3 2.5-9.2 3-13 0.7-13.1-2.8-26.1 0-38 9.1 7.2 9.6 24.4 9 37-0.6 12.6-4.7 25.2-9 37-4.3 11.8-6.4 24.3-9 36zm285-56c-1.8 1.1-5.6 4.2-7 6-8.2 13.7-15.9 22.7-20 39-4.1 16.3-1 40.4-2 58-0.2 3.1-0.1 5.7-2 8 0 0.5 0 1 0 1-0.5 2.6-2.8 4.7-5 6-2.3-9.8-0.4-20.8-1-31q0-5 0-10c-0.7-7.2-1.4-15.8 0-23 0.6-7 1.8-15.8 5-22 3.2-6.3 4.2-12.6 9.2-17.8 5.1-5.1 6.8-15.4-2.9-9.9-9.7 5.5-13.4-0.2-6.2-5.2 7.2-5.1 10.5-6.5 17.9-10.1 2.3-1.1 4.3-2.2 7-3 9.6-2.8 19.9-3.7 30-5 0.8 6.4-5.8 9-11.1 9.9-5.2 1-6.1 9.4-11.9 9.1zm-145 64c0.9 3.2 2 5.7 2 10 0 8.3 0.6 9.9-2.8 18.2-3.4 8.3-6.1 1.5-6.2-6.2-0.2-1.7-0.9-4.6-1-7-0.3-14.9-5.9-26.9-13-39-5.1-1.2-8.4 12.8-9 16-0.4 1.8-0.4 2.6-1 4-0.7 3.3-0.5 6.6-1 10-0.6 4.5-1.6 9.5-2 14-0.9 10.7 2.3 20.6 2 31 0 1-0.1 2 0 3 1.3 12.8 9.4 22.8 9.8 36.2 0.3 13.4-1.2 28.4-4.8 40.8-3.5 12.4-9 24-10 37-0.2 2.5 0.9 6.3-1 8-1.1-1.6-3.7-2.3-3-5-6.6-20.5 6.6-39.4 9-60 2.4-20.6-7.8-40.1-12-59-0.8-2.3-1.6-4.2-2-7-1.1-7.2-2.3-12.1-2-20 0.3-7.9 0.1-10.7 1.9-19.1 1.8-8.3 0.5-9 4.1-18.9 3.6-9.9 9-22.4 14.3-31.7 5.3-9.3 9.6 1.6 13.7 0.7-1.8 16.9 13.5 27.7 14 44zm95-33c-0.7 12.3-9.1 22.5-8 36 1.1 13.5 3.1 26.8 4 40 0.5 2.6 1 5.8 1 9 0.3 2.9 0.3 6.2 0 9q0 2.5 0 5c0 2.6-0.6 5-1 7-1 4.6-2.1 9.6-4 14-0.9 2.1-2.2 5.1-5 5 0.4-1.6-0.9-4.2 1-5 0.1-3.7 0-7.3 0-11q0-8.5 0-17c0-19.6-23.1-6.1-29.8 6.3-6.6 12.3-0.8 36.2-5.2 50.7-0.9 3-2.6 7.5-6 8 0.3-4.6 0.4-10.1 2-14 1.5-15.7-3.4-29.9-4-45-0.3-2.2-1-5.1-1-8 0-20.7 11.3-38.2 15-58 1.5 0.4 2.4-1.4 4-1 4.1 1.3 1.3 10 1 12-0.5 12.9-7.5 24.3-9 37 0.4 3.1 0.6 3.9 4 4 6.6-1.8 15.1-8.4 21-12 3.5-2.5 4.1-6 4-10-1-7.3-2.5-18.8-2-26 0.5-7.2 1.1-18.2 4.3-23.7 3.2-5.4 4.5-15.6 10.7-17.3 3.1-0.9 3.2 1.5 3 5zm-174 12c1 18.9-0.6 39.8 4.8 57.2 5.3 17.4 12.2 32.2 12.2 50.8 0.4 3.6 0.6 7.4 0 11-0.6 8.8-4 16.9-7 25-0.8 2.2-3.1 3.1-5 4-0.6-0.9-1.1-1.8-1-3 0-0.5 0-1 0-1-0.3-3.9 1.1-7.4 2-11 0.6-3.9 1.6-8.7 2-12 1.1-28.9-14.5-51.3-17-79-0.4-2-0.9-4.4-1-7-0.1-6.4-1.4-17 0-23 1.4-6 0.2-15.3 4-20 5-6.1 5.8 4.5 6 8zm95 129c1.2-2.2 4.7-7 5-9 0.1-3-1.2-5.3-2-8-1.2-1.6-1.9-1.3-4 1-3.1 4.2-6.4 10.1-12 11 2-12.6 7.9-16.2 9-30 1.1-13.8 16-4.3 17.8 6.2 1.7 10.5 0.5 23.4-5.7 31.9-6.2 8.5-11.5 14.3-18.3 21.6-6.9 7.4-13.1 13.4-19 21-6 7.8-8.9 17.5-15.8 24.3-1-29.5 29.4-47.6 45-70z"/>
	</g>
	<g>
		<path class="s1" d="m152 10c1.2-1 3.7 1.8 3 3 0-0.2-0.8-9.2-3-3z"/>
	</g>
	<g>
		<path class="s2" d="m152 12c0.4 1.1 2.5 0.5 3 1 0.7-1.2-1.8-4-3-3-0.2 0.4 0.1 1.5 0 2z"/>
	</g>
	<g>
		<path class="s3" d="m126 228c0.2 0.6 0.8 1 1 2 1 2.6 2.6 5.7 2 9q2 0 4 0c0-2.7 0.1-5.3 0-8-0.3-15.2-8.5-28.4-11-43-0.7-2.3-2.6-5.2-3-8-2.3-16.6 0.5-33.7 9.1-46.9 8.6-13.2 15.6-23.4 18.9-38.1 1.1-4.8 2.7-9.7 4-14 1.5-8.4 2-12 3-21 1.1-9 8.8-0.6 7.7 6.3-1.2 6.9 2.8 15.7 1.3 22.7-1.5 7-0.9 14-2.2 20.8-1.4 6.8-3.2 12.6-4.8 19.2-1.6 6.6-1.8 13.5-4.2 19.8-2.5 6.3-3.1 13.5-3.8 20.2-0.7 6.7 2.1 13.1 4.2 18.8 2.2 5.7 9.8 9.8 14 4.4 4.2-5.4 2.6-13.1 5-19 2.5-5.9 4.4-11 5.8-17.2 1.2-5.4 2.7-5.9 6-10 1.2-2 2.5-3.9 4-6 2.1-2.9 2.3-4.9 7-5 1.4 1.7 0.9 4 1 6 1.4 18.7-9.5 34-14 51-0.8 5.7 0 12.2 0 18 0 19.1 8.6 35.3 9 54 0.6 4.9 0.9 10.2 0 15-0.6 8.3-3 12.3-5.7 20.3-2.8 7.9 5.9 4.4 9.5-1.6 3.5-5.9 6.1-11.2 6.2-18.7 0.1-7.5 2-16.2-0.7-23.3-2.6-7.1-2.2-13.5-4.5-20.5-2.3-6.9-3.3-13.8-3.8-21.2-0.4-2.3-1-5.1-1-8 0-19.7 13.3-35 15-54 0.7-8.1 1-15.8 1-24 1-9-2.2-17.7-6-25-3.8-7.3 0.2-17.6-7-23-0.8 2.4-1.4 4.6-2 7-0.3 2.5-0.8 6.2-1 8 0 5.2-0.4 10-1 15-0.4 3.4-0.1 7.7-3 10-0.3 4.5-3.6 6.8-6 10-5.5 7.9-8.5 19.1-17 24 0.1-17 6.4-33.5 8-51 0.2-2.2 0.8-5.4 1-7 0.3-13-1.1-24.7-3-37-0.8-2.9-1.6-5.6-2-9-1.5-13.3-10.6-24.2-12-37-0.5-0.5-2.6 0-3-1-5.9 25.4-4.3 54.7-13 79-8.7 24.2-21.7 37.5-28.7 62.3-7 24.8 13.1 51.5 15.7 74.7z"/>
	</g>
	<g>
		<path class="s4" d="m348 44c2.2 0.7 1.7-2.7 4-2-0.2 2.6 0.3 9.5 2 9-0.7-2.4-1.2-5.3-1-8 0 0 0-0.5 0-1-3.4-1.5-1.8-6.9-2-10-1.2-5.6-0.8-12.3-4-17-1.7 9.5-0.3 19.5 1 29z"/>
	</g>
	<g>
		<path class="s5" d="m353 42c0.3-3.7-1.3-6.9-2-10 0.2 3.1-1.4 8.5 2 10z"/>
	</g>
	<g>
		<path class="s6" d="m348 44c1.8 6 2.2 12.5 2 19-2.9 1.2-6.4 1.1-7 5-4.2 0.6-8-0.8-12-1 5.6 3.8-1.9 13.8 0 17 3.7-1.1 6.8-1.5 10-1 2.9 0.5 7.1 3 8 0 0.5-3.3-6.6-7.6-1.2-12.2 5.4-4.6 6.3 2.2 7.2 7.2 2.9 15.6 8.9 30.1 14 45 1.4 2.9 2.8 5.7 4 9 5.1 10.8 10.4 23.3 13 35 1.6 4.6 3 9.9 4 15 1.3 6.3 2.9 12.4 3 19 0.9 7.5 1.3 16.6 0 24-1 14.9-10.2 29.1-18.3 40.8-8 11.6-21.6 17.7-27.7 30.2-0.2 0.4 0 1 0 1-1.2 1.5-4.3 7.6-6 5-0.1 0 0.1-1.5 0-2-2.7-1.3-2.8 1.4-2 3-2.1-0.4-3-4.1-1-5 3.2-21.9 16-39.8 16-63q0-5 0-10c0-1 0.1-2.1 0-3-0.4-2.6-0.7-5.2-1-8-1.3-12.9-8.2-29.7-6.7-39.3 1.5-9.6-4.8-12.7-6-20-1.2-7.3-4-13.7-8.3-14.7-1.1-4.3-1.4-8.8-3-13-7.7 5.2-6.7 18.8-8 29-1.3 10.2-0.5 24-3 34-2.5 9.9-3.5 20.6-7.1 29.9-3.5 9.4-6.6 17-11.7 25.4-5 8.3-9.5 14.5-13.2 23.7-3.7 9.2-4.6 21.5-4 32 0.4 3.2 2.2 7.5 3 11 6.9 22.8 16.6 44.7 14 70 15.2-8.1 9.1-34.4 4-48-2-3.4-3.3-4.6-4-9-1.6-9.9-5.2-18.9-6-29-0.5-2.6-0.3-4.6 0-7 0.8-20.1 14-34.3 22.1-51.9 8.1-17.7 11.5-38.6 16.9-57.1 7.4 12.5 11 28.8 11 44 0.6 5.7 1 12.3 0 18-1.6 22.8-16 41.9-16 65 0 2.3-0.1 4.7 0 7 0.5 8.4 2.6 10.1 5.2 18.8 2.6 8.6 8.4 2.3 9-4.6 0.7-6.8 6.9-9.3 9.8-14.2 1.4-4.8-0.1-6.3 3-10 12.4-16.2 29.4-29.6 40-47 4.3 1.6 8.3-2.9 12-5 3.2-2.6 4.1-5.3 5-9 0.3-2.8-0.3-6.8-1-10-0.3-1.5-0.6-2.6-1-4 0.2 0.1-3.2 1.2-3 1-0.5 1.6 0 4.6-3 4q0-3.5 0-7c-0.1-3.8 0.7-8 1-11 0-6.5-0.2-12.7-1-19-0.3-2.3-2.2-5.8 1-8-1.2-0.7-2.6-1.6-3-3-5.8-13.9-8.8-30.1-15.2-43.8-6.5-13.6-12.5-26.9-16.8-41.2-1.3-2.6-3.2-3.7-4-7-2.1-8.8-5.3-17.2-7-26-0.9-2.2-3.3-8.3-6-6 2.8-2.3 2-4.2 3-8 0.2-0.9 0.1-2.1 0-3-0.3-0.2-1 0-1 0-1.7 0.5-2.2-6.4-2-9-2.3-0.7-1.8 2.7-4 2z"/>
	</g>
	<g>
		<path class="s7" d="m354 51c0 0 0.7-0.3 1 0-0.2-2.8-1-5.8-2-8-0.2 2.7 0.3 5.6 1 8z"/>
	</g>
	<g>
		<path class="s8" d="m169 59c-0.5-3.1-1.4-6.4-2-9 0.4 3.4 1.2 6.1 2 9z"/>
	</g>
	<g>
		<path class="s9" d="m358 68c-0.9-4.6-2.2-9.8-3-14-1 3.8-0.2 5.7-3 8 2.7-2.3 5.1 3.8 6 6z"/>
	</g>
	<g>
		<path class="s10" d="m349 83c-1.6-4-4.3-13 3-13-0.7 3.2 2.2 5.7 3 8-0.9-5-1.8-11.8-7.2-7.2-5.4 4.6 1.7 8.9 1.2 12.2z"/>
	</g>
	<g>
		<path class="s11" d="m270 78c2.8-3.9 4.1-0.9 8-2 0.1 1.4 0.7 3.3 2 4-2.4-7-8.1-9.6-10-2z"/>
	</g>
	<g>
		<path class="s12" d="m270 78c-2.3 9.2-4.2 18.9-7 28-0.8 2.7-2.1 5.6-3 8-5.3 19.9-12.3 39.6-5 60 7.4 20.4 11.4 40 11 62-0.1 2.7-0.6 5-1 7 0 1 0 2 0 3 0.1 2.5-0.8 5.3-1 7 0.2 4.7-0.6 9.7 1 14 5.2-0.9 8.6-5.2 12-9 2.1-2.9 3.7-5.4 6-8 1-1.4 2.2-2.6 3-4 15.6-26 20-55 21-86 1-31-17.7-53.1-27-80-1.3-0.7-1.9-2.6-2-4-3.9 1.1-5.2-1.9-8 2zm11 24c7.1 15.4 14.3 32.6 15 50 1 7.3 0.7 15.8 0 23 0 10.5-1.9 23.2-5.3 32.7-3.4 9.4-4.8 19.7-12.7 25.3-3.7-21.5-5.1-41.4-13-62-7.8-20.6 1.1-43.4 7-63 0.7-3.7 1.1-7.3 2-11 3.3-0.3 6.1 1.9 7 5z"/>
	</g>
	<g>
		<path class="s13" d="m147 95c1.5-4.3 3.1-9.1 4-14-1.3 4.3-2.9 9.2-4 14z"/>
	</g>
	<g>
		<path class="s14" d="m331 84c1.5 2.5 7.5-1 10-1-3.2-0.5-6.3-0.1-10 1z"/>
	</g>
	<g>
		<path class="s15" d="m190 95c0.2-1.8 0.7-5.5 1-8-0.6 2.4-1 5-1 8z"/>
	</g>
	<g>
		<path class="s16" d="m369 101c-0.8-2.8-3.1-4.8-4-7 0.8 3.3 2.8 4.4 4 7z"/>
	</g>
	<g>
		<path class="s17" d="m171 103c0.3-1.9 0.9-4.4 1-7-0.2 1.6-0.8 4.8-1 7z"/>
	</g>
	<g>
		<path class="s18" d="m272 108c0.9-2.9 1.9-8.6 6-9 0.7 1.2 1.6 2.6 3 3-0.9-3.1-3.7-5.3-7-5-0.9 3.7-1.3 7.3-2 11z"/>
	</g>
	<g>
		<path class="s0" d="m272 108c-5.9 19.6-14.8 42.4-7 63 7.9 20.6 9.3 40.5 13 62 7.9-5.6 9.3-15.9 12.7-25.3 3.4-9.5 5.3-22.2 5.3-32.7 0-7.7 0.3-15.4 0-23-0.7-17.4-7.9-34.6-15-50-1.4-0.4-2.3-1.8-3-3-4.1 0.4-5.1 6.1-6 9z"/>
	</g>
	<g>
		<path class="s19" d="m260 114c0.9-2.4 2.2-5.3 3-8-1.1 2.6-2.2 5-3 8z"/>
	</g>
	<g>
		<path class="s20" d="m186 119c-0.1 0.5 0 1 0 1 2.9-2.3 2.6-6.6 3-10-0.6 2.6-2.3 6-3 9z"/>
	</g>
	<g>
		<path class="s21" d="m180 130c2.4-3.2 5.7-5.5 6-10 0 0-0.1-0.5 0-1-3.3 2.3-5 8.6-6 11z"/>
	</g>
	<g>
		<path class="s22" d="m216 130c0 0 1 0 1 0 0-0.5-0.1-1.5 0-2 0.4-2.2 1.4-4.6 3-6-2.9-2.1-3.8 6-4 8z"/>
	</g>
	<g>
		<path class="s23" d="m217 128c1.1-2 3.3-3.6 4-6 0 0-0.7 0.2-1 0-1.6 1.4-2.6 3.8-3 6z"/>
	</g>
	<g>
		<path class="s24" d="m217 128c-0.1 0.5 0 1.5 0 2 0 10.3-2.2 20.6-4 30-3.8 19.7-14.8 39.9-12 61 2.9 21.1 13 38.2 13 60 0.3 3.1 1 7.3 1 11 0 10.6-1 20.7-1 31 0.3-0.3 1 0 1 0 5 1.5 10.2-0.8 15-4 2.2-2.6 3.6-4.9 5-8 1.2-2.6 2.7-3 4-5 2.6-6.8 5.4-13.3 8-20 0.6-5.9 2.5-11.7 4-18 0.6-2.6 1.4-5.4 2-8 0.1-0.5-0.1-1.5 0-2 1.9-7.9 3.5-17.9 4-25 1.7-26.8-7.8-49.7-18-74-0.9-2.2-3-3.7 0-6-4.6-1.5-2.6-6.7-4-11-1.9-5.5-3.2-14.4-10-14 0.3-2.8-1.3-5.3-4-6-0.7 2.4-2.9 4-4 6zm9 162c-0.8-2.4-0.8-5-1-8-0.9-11-3.7-23.3-6-34-2.3-10.7-5.6-22.2-7-33-1.4-10.8 3.4-22.8 6-32 2.6-9.3 6-27.4 12.8-16.8 6.7 10.7 7.4 17.7 11.1 28.9 3.8 11.1 4.1 23.9 4.1 35.9 0 12-2.8 23.9-5 35-2.2 11.1-7.2 18.7-11 29-2.7 0.2-3.7-2.9-4-5z"/>
	</g>
	<g>
		<path class="s25" d="m373 132c-1.2-3.3-2.6-6.1-4-9 1.1 3.1 2.7 6.3 4 9z"/>
	</g>
	<g>
		<path class="s26" d="m205 152c1.6-7.8 1.8-16 1-24 0 8.2-0.3 15.9-1 24z"/>
	</g>
	<g>
		<path class="s27" d="m213 160c1.8-9.4 4-19.7 4-30 0 0-1 0-1 0-0.9 10-2.3 21-3 30z"/>
	</g>
	<g>
		<path class="s28" d="m187 140c2.4-0.9 4.4-2.8 7-3-0.8 1.5 0.8 3.2 1 4-0.1-2 0.4-4.3-1-6-4.7 0.1-4.9 2.1-7 5z"/>
	</g>
	<g>
		<path class="s29" d="m239 159c-0.4-0.5 6.3 3.1 4 1-2.8-5.9-5.3-12.5-8-18 1.4 4.3-0.6 9.5 4 11-3 2.3-0.9 3.8 0 6z"/>
	</g>
	<g>
		<path class="s30" d="m177 156c1.3-3.4 4-6.7 6-10-3.3 4.1-4.8 4.6-6 10z"/>
	</g>
	<g>
		<path class="s31" d="m296 175c0.7-7.2 1-15.7 0-23 0.3 7.6 0 15.3 0 23z"/>
	</g>
	<g>
		<path class="s32" d="m239 159c10.2 24.3 19.7 47.2 18 74-1.3 3.6 2.2-2 2-3q0 3 0 6c1.3-7.2 0.8-15.4 0-23-0.9-2.6-3.4-5.4-2-9 2 0.5-0.1 3.6 2 4 0-2.2 0.4-4.4-1-6-2.5 2.5-2-2.3-2-4 1.7 0.2 0.2 2.8 2 3-0.8-5-2.4-9.6-4-14-0.2-0.4-1.7-4.5-2-6-2.7-7.3-5.8-14.2-9-21 2.3 2.1-4.4-1.5-4-1zm20 56q0 7 0 14c-1.6-3.6-1.7-10.5 0-14z"/>
	</g>
	<g>
		<path class="s33" d="m411 187c-1.1 0.3-3.1 2.3-4 3 5 0.9 11 1.1 15 4 3.9 0.3 4.5 4.1 3 7 11.2-1.1 9.5 12 13 19 4.1-4.5 0.4-14.8 7-18 2.1-1 3.7-0.5 6 1 0.3-4.3 2.9-11 8-11 1-0.1 2 0 3 0 1.1-0.2 6.6-1.8 4-4-3.8-1.6-8.2-0.9-12-3-3.7-2-3.1-2.6-3-6 2.4-2.7-0.5-4.8-2-7-8.3 9.2-8-7.6-11-12-2.9 5.3-2.8 22.5-13 15 2.2 8.7-5.6 12.9-14 12z"/>
	</g>
	<g>
		<path class="s0" d="m225 282c0.4 2.1 0.5 5.4 1 8 0.3 2.1 1.3 5.2 4 5 3.8-10.3 8.8-17.9 11-29 2.2-11.1 5-23 5-35 0-12-0.3-24.8-4.1-35.9-3.7-11.2-4.4-18.2-11.1-28.9-6.8-10.6-10.2 7.5-12.8 16.8-2.6 9.2-7.4 21.2-6 32 1.4 10.8 4.7 22.3 7 33 2.3 10.7 5.1 23 6 34z"/>
	</g>
	<g>
		<path class="s34" d="m390 182c-1-5.1-2.4-10.4-4-15 1.2 5.3 2.4 10.3 4 15z"/>
	</g>
	<g>
		<path class="s35" d="m454 185c-2.2-1.6-2.6-3.3-3-6-0.1 3.4-0.7 4 3 6z"/>
	</g>
	<g>
		<path class="s36" d="m122 188c-0.5-2.9-2.5-5.9-3-8 0.4 2.8 2.3 5.7 3 8z"/>
	</g>
	<g>
		<path class="s37" d="m254 187c-0.7-2-1.3-4-2-6 0.3 1.5 1.8 5.6 2 6z"/>
	</g>
	<g>
		<path class="s38" d="m401 186c0.4 1.4 1.8 2.3 3 3-3.2 2.2-1.3 5.7-1 8 0.2-10.4 10.7-5.6 18-3 0.4 0.2 1 0 1 0-4-2.9-10-3.1-15-4 0.9-0.7 2.9-2.7 4-3-3.7-0.4-5.1-3-6 2-0.9-0.9-3.3-1.9-4-3z"/>
	</g>
	<g>
		<path class="s39" d="m462 192c2.6 0.6 4.5-1.3 7-1 0.6-2.4-1.7-2.4-3-3 2.6 2.2-2.9 3.8-4 4z"/>
	</g>
	<g>
		<path class="s40" d="m181 210c0-5.8-0.8-12.3 0-18-1.5 5.7-0.6 12.4 0 18z"/>
	</g>
	<g>
		<path class="s41" d="m445 202c3.1-0.6 5 2.6 8 2-1.3-3.2 2.2-10.9 6-12-5.1 0-7.7 6.7-8 11-2.3-1.5-3.9-2-6-1z"/>
	</g>
	<g>
		<path class="s42" d="m425 201c1.5-2.9 0.9-6.8-3-7 0 0-0.6 0.2-1 0 3.4 1.6 1.8 5.1 4 7z"/>
	</g>
	<g>
		<path class="s43" d="m258 202c0 0 0.1-0.5 0-1-1.8-0.2-0.3-2.8-2-3 0 1.7-0.5 6.5 2 4z"/>
	</g>
	<g>
		<path class="s44" d="m393 225c1.3-7.4 0.9-16.5 0-24 0.2 7.9 0.5 16.1 0 24z"/>
	</g>
	<g>
		<path class="s45" d="m259 213c-0.2-1.6 0-3.3 0-5-2.1-0.4 0-3.5-2-4-1.4 3.6 1.1 6.4 2 9z"/>
	</g>
	<g>
		<path class="s46" d="m191 214c-0.2-2.6-0.8-6-1-8 0 2.9 0.6 5.7 1 8z"/>
	</g>
	<g>
		<path class="s47" d="m85 213c1.1 0.6 3.7 0.7 5 1-2.4-0.5-4.7-4.7-5-1z"/>
	</g>
	<g>
		<path class="s48" d="m90 215c1.3 0.3 3.3 0.4 5 1 1.7 0.6 4.4-2.1 5-2-2.8-1.4-6.3 1.8-10 1z"/>
	</g>
	<g>
		<path class="s49" d="m102 227c-0.5-1.4-2.7-2.8-2.6-4.7 0.1-2 2.6-4.1 2.6-5.3-0.3-2.6-0.1-2-2-3-0.6-0.1-3.3 2.6-5 2-1.7-0.6-3.7-0.7-5-1-1.3-0.3-3.9-0.4-5-1 2.1 6.2 1.9 11.9 0 18 5.9-3.3 11.9-1 18 0 0.3-1.9-0.8-3.3-1-5z"/>
	</g>
	<g>
		<path class="s50" d="m354 222c0.9-3.8 0.1-4.5-1-8 0.3 2.8 0.6 5.4 1 8z"/>
	</g>
	<g>
		<path class="s51" d="m259 215c-1.7 3.5-1.6 10.4 0 14q0-7 0-14z"/>
	</g>
	<g>
		<path class="s52" d="m403 227c0.2-2 1-5.3 1-8q0-1.5 0-3c-0.3 3-1.1 7.2-1 11z"/>
	</g>
	<g>
		<path class="s53" d="m102 227c-0.5-3.6 0.4-6.7 0-10 0 1.2-2.5 3.3-2.6 5.3-0.1 1.9 2.1 3.3 2.6 4.7z"/>
	</g>
	<g>
		<path class="s54" d="m403 227q0 3.5 0 7c3 0.6 2.5-2.4 3-4 0.5-1.5 1.2-3.3 1-5-0.9-1-2.3-2.6-3-6 0 2.7-0.8 6-1 8z"/>
	</g>
	<g>
		<path class="s55" d="m343 242c1-5.7 0.6-12.3 0-18 0 5.9 0.4 12.1 0 18z"/>
	</g>
	<g>
		<path class="s56" d="m354 235c0.2-1.5 1.1-3.8 1-6-0.1-1.6-0.8-3-1-4q0 5 0 10z"/>
	</g>
	<g>
		<path class="s57" d="m406 230c-0.2 0.2 3.2-0.9 3-1-0.7-2.4-0.4-2.2-2-4 0.2 1.7-0.5 3.5-1 5z"/>
	</g>
	<g>
		<path class="s58" d="m130 248c0.7-2.8-2.3-13.8-3-18-0.2-1-0.8-1.4-1-2 0.5 4.1 0.4 9 1 13 0.7 3.9 0.8 8.8 3 7z"/>
	</g>
	<g>
		<path class="s59" d="m149 266c-0.3 4.9-1.8 8.8-3 13-1.9 11.9-7.8 22.3-10 34-0.6 3.1-1 5.7-3 8 0 0 0.1 0.5 0 1-0.4 2.1-1.9 3.2-3 5-3-1.9-7.6-0.2-10-3-6.4 1.6-9.6-5.1-7-10-11 6.3-10.2-10.9-13-17-4.2 5.8-2.5 22-14 17 3.2 8-2 10.5-9 11-1.5 0.3-6.4 1.1-8 2 1.5 0.1 9.4 4.1 12 5 5.9-0.8 6.8 4.8 5 9 0.8 0.3 2.2-0.4 3 0 3.9 1.3 4.9-1 7 5 1.6 3.8 0.9 9.2 4 12 2.5-6.1 2.2-19.2 13-17-1.4-3.9 2.3-5.8 3-9 2.5 0.1 4.7-0.6 7-1 5.8-1.1 7.1-1.6 7 4-0.1 4.3-0.7 7.9-1 12-0.5 7.8-0.5 16.3 0 24 0.9 13.2 2.7 31.4 13 41 0.3 0.3 1 0 1 0 1.6-2.6 4.4-2.8 7-4 0.4-1.6-0.9-4.2 1-5 2.9-8.2 7.7-15.7 14-22 1.6-2.5 7.2-8.4 9-12 1.3-2 1.5-5 0-7-9.4 6-19.8 14.3-26 24-6.2 9.7-7.3 0.3-8-6-0.4-2-1.3-4.3-1-7 0 0 0.2-0.6 0-1-1.8-4.9-3.1-20.9 0-25 0 0 0-0.5 0-1 0-3 0.3-5.6 1-8 2.7-11.7 4.7-24.2 9-36 4.3-11.8 8.4-24.4 9-37 0.6-12.7 0.1-29.8-9-37-2.8 11.9 0.7 24.9 0 38z"/>
	</g>
	<g>
		<path class="s60" d="m354 235c0 23.2-12.8 41.1-16 63 1.4 1.2 2.4-0.9 3 2 0.1 0.5-0.1 2 0 2 1.5 0.4 4.5-4 6-5 0 0-0.2-0.6 0-1-2 0.7-3 3.2-5 4 0.1-12.5 6.2-22.5 10-34 3.9-11.4 6.3-26.6 3-37 0.1 2.2-0.8 4.5-1 6z"/>
	</g>
	<g>
		<path class="s61" d="m130 248c1.9-1.5 2.7-3.5 3-6 0.1-1 0-2 0-3q-2 0-4 0c0.6-3.3-1-6.4-2-9 0.7 4.2 3.7 15.2 3 18z"/>
	</g>
	<g>
		<path class="s62" d="m257 233c-0.5 7.1-2.1 17.1-4 25 1.3-0.7 1.7-0.8 3 0 0.1-2.7 0.4-6 2-8 0.3-4.8 0.2-9.4 1-14q0-3 0-6c0.2 1-3.3 6.6-2 3z"/>
	</g>
	<g>
		<path class="s63" d="m133 239c0 1 0.1 2 0 3 1-3.8 0.4-7.3 0-11 0.1 2.7 0 5.3 0 8z"/>
	</g>
	<g>
		<path class="s64" d="m411 243c0.6-2.7 1.9-5.9 0-9-0.2-0.3-0.9-0.7-1-1 0.7 3.2 1.3 7.2 1 10z"/>
	</g>
	<g>
		<path class="s65" d="m411 243c-0.9 3.7-1.8 6.3-5 9 3-1.8 6.7-4.8 8-8-0.1-3.4 2-13.1 8-8-1.9-4.1-6.7-0.9-9 1 0.7-1.8-1.3-2.1-2-3 1.9 3.1 0.6 6.3 0 9z"/>
	</g>
	<g>
		<path class="s66" d="m414 244c-0.3 4.7 1.9 15.8 7 8 4.8 8.9 10.5-3.1 16 2 1.6-5.3 11-5 6-10-0.1 0-5.9 1.4-5-2 1-3.4 0.3-6.2-2-7-5.4-0.9-3.8 4.7-7.8 7.2-3.9 2.5-4.5-4.2-6.2-6.2-6-5.1-8.1 4.6-8 8z"/>
	</g>
	<g>
		<path class="s67" d="m443 244q-2 0-4 0c-0.4-3.5 1.5-8.3-3-9 2.3 0.8 3 3.6 2 7-0.9 3.4 4.9 2 5 2z"/>
	</g>
	<g>
		<path class="s68" d="m265 243c0.4-2 0.9-4.3 1-7-0.2 1.8-1.1 4.5-1 7z"/>
	</g>
	<g>
		<path class="s69" d="m264 253c0.2-1.8 1.1-4.5 1-7-0.4 2-0.9 4.3-1 7z"/>
	</g>
	<g>
		<path class="s70" d="m283 250c-1.2 1.6-1.9 3.4-3 5 2.2-1.9 4.8-5.6 6-9-0.8 1.4-2 2.6-3 4z"/>
	</g>
	<g>
		<path class="s71" d="m253 258c-0.1 0.5 0.1 1.5 0 2 1.9 1.5 1.8 1.8 1 5 2.2-4.6 3.6-9.6 4-15-1.6 2-1.9 5.3-2 8-1.3-0.8-1.7-0.7-3 0z"/>
	</g>
	<g>
		<path class="s72" d="m277 258c0.9-1 2.2-1.9 3-3 1.1-1.6 1.8-3.4 3-5-2.3 2.6-3.9 5.1-6 8z"/>
	</g>
	<g>
		<path class="s73" d="m251 268c0.3-0.3 2.7-0.3 3-1 0.1-0.5-0.1-1.5 0-2 0.8-3.3 0.9-3.5-1-5-0.6 2.6-1.4 5.4-2 8z"/>
	</g>
	<g>
		<path class="s74" d="m418 268c-2.1 0.9-4.4 2.1-7 3-7.4 3.6-10.7 5-17.9 10.1-7.2 5-3.5 10.7 6.2 5.2 9.7-5.5 8 4.8 2.9 9.9-5 5.2-6 11.5-9.2 17.8-3.2 6.2-4.4 15-5 22-0.6 7.6 0 15.4 0 23q0 5 0 10c0.7 7.7-0.8 18.9 1 27 0.7-1 2.1-0.6 3-1 0.2-0.1 2-1 2-1 0 0 0-0.5 0-1 0.1-3 1.6-5.6 2-8 1-17.6-2.1-41.7 2-58 4.1-16.3 11.8-25.3 20-39 2.1-3.6 3.6-4.5 7-6 5.8 0.3 6.7-8.1 11.9-9.1 5.3-0.9 11.9-3.5 11.1-9.9-10.1 1.3-20.4 2.2-30 5z"/>
	</g>
	<g>
		<path class="s75" d="m190 279c0.9-4.8 0.6-10.1 0-15 0.1 4.9 0.3 10.1 0 15z"/>
	</g>
	<g>
		<path class="s76" d="m146 279c1.2-4.2 2.7-8.1 3-13-0.5 3.8-2.3 8.7-3 13z"/>
	</g>
	<g>
		<path class="s77" d="m251 268c-1.5 6.3-3.4 12.1-4 18 2.3-6 5.5-12.4 7-19-0.3 0.7-2.7 0.7-3 1z"/>
	</g>
	<g>
		<path class="s78" d="m411 271c2.6-0.9 4.9-2.1 7-3-2.7 0.8-4.7 1.9-7 3z"/>
	</g>
	<g>
		<path class="s42" d="m215 292c0-3.8-0.7-7.9-1-11 0 3.8 0.7 7.9 1 11z"/>
	</g>
	<g>
		<path class="s79" d="m226 290c-0.5-2.6-0.6-5.9-1-8 0.2 3 0.2 5.6 1 8z"/>
	</g>
	<g>
		<path class="s80" d="m418 288c1.4-1.8 5.2-4.9 7-6-3.4 1.5-4.9 2.4-7 6z"/>
	</g>
	<g>
		<path class="s81" d="m293 296c-0.2-2.3 0-4.7 0-7-0.3 2.4-0.5 4.4 0 7z"/>
	</g>
	<g>
		<path class="s82" d="m341 302c1.7 2.6 4.8-3.5 6-5-1.5 1-4.5 5.4-6 5z"/>
	</g>
	<g>
		<path class="s83" d="m234 391c0.6 2 1.5 4.6 2 7 4.3 18.9 14.4 38.4 12 59-2.4 20.6-15.6 39.5-9 60 1.4 1.4 3.5-1.7 4-3 1-13 6.5-24.6 10-37 3.6-12.4 5.1-27.4 4.8-40.8-0.4-13.4-8.5-23.4-9.8-36.2-0.9-2.5-2.3-5.1-3-8-1.1-4.5-1.7-9.3-2-14-0.6-4-0.4-8.2 0-12 0-9.9 2.5-19.3 5-28 1.7-6 4-28 11-16 7.1 12.1 12.7 24.1 13 39 0.2 1.8 0.9 4.6 1 7 0.1 7.7 2.8 14.5 6.2 6.2 3.4-8.3 2.8-9.9 2.8-18.2-0.3-2.8-1.5-6.8-2-10-0.5-16.3-15.8-27.1-14-44-4.1 0.9-8.4-10-13.7-0.7-5.3 9.3-10.7 21.8-14.3 31.7-3.6 9.9-2.3 10.6-4.1 18.9-1.8 8.4-1.6 11.2-1.9 19.1-0.3 7.9 0.9 12.8 2 20z"/>
	</g>
	<g>
		<path class="s84" d="m341 300c-0.6-2.9-1.6-0.8-3-2-2 0.9-1.1 4.6 1 5-0.8-1.6-0.7-4.3 2-3z"/>
	</g>
	<g>
		<path class="s85" d="m285 312c-0.8-3.5-2.6-7.8-3-11 0.3 4.6 1.7 7.3 3 11z"/>
	</g>
	<g>
		<path class="s86" d="m351 314c2.9-4.9 1.8-7.2 3-10-3.1 3.7-1.6 5.2-3 10z"/>
	</g>
	<g>
		<path class="s87" d="m235 311c0.6-0.7 2.5-1.3 3-2 0.4-0.9 0.6-2.1 1-3-1.3 2-2.8 2.4-4 5z"/>
	</g>
	<g>
		<path class="s88" d="m327 314c-0.1-2.3 0-4.7 0-7-0.2 2.3-0.4 4.5 0 7z"/>
	</g>
	<g>
		<path class="s89" d="m372 308c1.8 0.3 2.9 3.5 3 5 0.2-3.5 0.1-5.9-3-5z"/>
	</g>
	<g>
		<path class="s90" d="m359 375c0.7 4.6 0.9 7-4 10-5.9 3.6-14.4 10.2-21 12-4.8 1.3-4.5 0-4-4 1.5-12.7 8.5-24.1 9-37 0.1-2.1 1-10.8-1-12-1.6-0.4-2.5 1.4-4 1-3.7 19.8-15 37.3-15 58 0.2 2.1 0.9 5.3 1 8 0.6 15.1 5.5 29.3 4 45 0.4 3.2 2.2 4.6 1 8 1.1-0.6 1.1-2.5 3-2 4.4-14.5-1.4-38.4 5.3-50.8 6.6-12.3 29.7-25.8 29.7-6.2 0.5 5.4 0.5 11.7 0 17 0 3.7 0.1 7.3 0 11 0.9 2.1 2.3 2.1 4 0 1.9-4.4 3-9.4 4-14 0.3-2.2 0.8-5.4 1-7q0-2.5 0-5 0-3 0-6c-0.3-3.3-0.7-8.1-1-12-0.9-13.2-2.9-26.5-4-40-1.1-13.5 7.3-23.7 8-36-0.1-1.5-1.2-4.7-3-5-6.2 1.7-7.5 11.9-10.7 17.3-3.2 5.5-3.8 16.5-4.3 23.7-0.5 7.2 1 18.7 2 26z"/>
	</g>
	<g>
		<path class="s91" d="m235 311c-1.4 3.1-2.8 5.4-5 8-0.8 1-2 3.4-3 4 4.8-3.8 8.5-8.5 11-14-0.5 0.7-2.4 1.3-3 2z"/>
	</g>
	<g>
		<path class="s92" d="m133 321c2-2.3 2.4-4.9 3-8-0.8 2.6-2.9 4.7-3 8z"/>
	</g>
	<g>
		<path class="s93" d="m195 317c3.8-3.1 5.7 5.8 6 8-0.2-3.5-1-14.1-6-8z"/>
	</g>
	<g>
		<path class="s94" d="m195 317c-3.8 4.7-2.6 14-4 20-1.4 6-0.1 16.6 0 23 0.2 1.6 0.8 4.8 1 7 2.5 27.7 18.1 50.1 17 79-0.2 4.3-1 8.3-2 12-0.9 3.6-2.3 7.1-2 11 1.8 1 3.1 0.8 5 0 0.4-0.2 1 0 1 0 3-8.1 6.4-16.2 7-25 0.3-3.6 0-7.4 0-11 0-18.6-6.9-33.4-12.2-50.8-5.4-17.4-3.8-38.3-4.8-57.2-0.3-2.2-2.2-11.1-6-8z"/>
	</g>
	<g>
		<path class="s95" d="m248 338c-0.3 0.4 1.8-3.1 2 0 0.6-3.2 3.9-17.2 9-16-7-12-9.3 10-11 16z"/>
	</g>
	<g>
		<path class="s96" d="m215 323c1.1 3.7 3 2.7 6 2 1.6-0.7 4.8-1.2 6-2 1-0.6 2.2-3 3-4-4.8 3.2-10 5.5-15 4z"/>
	</g>
	<g>
		<path class="s97" d="m120 324c2.4 2.8 7 1.1 10 3 1.1-1.8 2.6-2.9 3-5-2.9 4.6-8.4 2.8-13 2z"/>
	</g>
	<g>
		<path class="s98" d="m214 324c0.1 0.5 1.8 1.9 1 3 2.1 0.2 4.8-0.1 6-2-3 0.7-4.9 1.7-6-2 0 0-0.8-0.3-1 0 0 0 0.1 0.5 0 1z"/>
	</g>
	<g>
		<path class="s99" d="m221 325c-1.2 1.9-3.9 2.2-6 2 0.8-1.1-0.9-2.5-1-3-1.1 8.3 10.7 0.9 13-1-1.2 0.8-4.4 1.3-6 2z"/>
	</g>
	<g>
		<path class="s100" d="m68 328c-0.3 0.1 0.6-1.8 1-2 1.6-0.9 6.5-1.7 8-2-2.4 0.2-5.1 0.3-7.3 0.7-2.2 0.4-2.7 3.7-1.7 3.3z"/>
	</g>
	<g>
		<path class="s101" d="m303 334c-1.1-3-3.2-6.5-4-9 0.7 4.4 2 5.6 4 9z"/>
	</g>
	<g>
		<path class="s102" d="m68 328c1.2 2.2 10.7 2.5 13 3-2.6-0.9-10.5-4.9-12-5-0.4 0.2-1.3 2.1-1 2z"/>
	</g>
	<g>
		<path class="s103" d="m123 331c4.6-0.2 6-0.3 7 4 0.1-5.6-1.2-5.1-7-4z"/>
	</g>
	<g>
		<path class="s104" d="m248 338c-2.5 8.7-5 18.1-5 28 0 0.5 0 1 0 1 1-1.4 2.8-0.8 3-1 0.4-4.5 1.4-9.5 2-14-0.3 0.6-1.3 1.7-2 2 0-4.1 0.2-9 3-12 0.6-1.4 0.6-2.2 1-4-0.2-3.1-2.3 0.4-2 0z"/>
	</g>
	<g>
		<path class="s105" d="m388 359c0-7.6-0.6-15.4 0-23-1.4 7.2-0.7 15.8 0 23z"/>
	</g>
	<g>
		<path class="s106" d="m139 346c1.7-2.3 0.6-5.1 1-8-0.7 2.4-1 5-1 8z"/>
	</g>
	<g>
		<path class="s107" d="m89 341c3.3 1.8 5.1 0.8 7 5-2.1-6-3.1-3.7-7-5z"/>
	</g>
	<g>
		<path class="s108" d="m248 352c0.5-3.4 0.3-6.7 1-10-2.8 3-3 7.9-3 12 0.7-0.3 1.7-1.4 2-2z"/>
	</g>
	<g>
		<path class="s109" d="m339 356c0.3-2 3.1-10.7-1-12 2 1.2 1.1 9.9 1 12z"/>
	</g>
	<g>
		<path class="s110" d="m282 356c0-4.3-1.1-6.8-2-10 0.5 3.2 1.7 7.2 2 10z"/>
	</g>
	<g>
		<path class="s111" d="m129 371c-0.5-7.8-0.5-16.3 0-24-1.3 7.3-1.3 16.6 0 24z"/>
	</g>
	<g>
		<path class="s112" d="m139 372c2.4-3.7 0-19.3 0-25-3.1 4.1-1.8 20.1 0 25z"/>
	</g>
	<g>
		<path class="s113" d="m192 367c-0.2-2.2-0.8-5.4-1-7 0.1 2.6 0.7 5 1 7z"/>
	</g>
	<g>
		<path class="s114" d="m273 368c-0.1-2.4-0.8-5.3-1-7 0.1 2.4 0.8 5.3 1 7z"/>
	</g>
	<g>
		<path class="s115" d="m243 367c0 3.6-0.2 7.4 0 11 0.3 4.7 0.9 9.5 2 14 0.5 1.4 2.7 3.6 3 5 0.3-10.4-2.9-20.3-2-31-0.2 0.2-2-0.4-3 1z"/>
	</g>
	<g>
		<path class="s116" d="m243 378c-0.2-3.6 0-7.4 0-11 0 0 0-0.5 0-1-0.4 3.8-0.6 8 0 12z"/>
	</g>
	<g>
		<path class="s117" d="m165 381c3.8-3.8 7.2-6.9 9-12-1.8 3.6-7.4 9.5-9 12z"/>
	</g>
	<g>
		<path class="s118" d="m394 394c0 0-1.8 0.9-2 1-0.8 1.1-0.8 3.9-3 4q0-1.5 0-3c-1.8-8.1-0.3-19.3-1-27 0.6 10.3-1.3 21.2 1 31 2.2-1.3 4.5-3.4 5-6z"/>
	</g>
	<g>
		<path class="s119" d="m140 380c-0.3-2.6 0.5-5-1-7-0.3 2.7 0.6 5 1 7z"/>
	</g>
	<g>
		<path class="s120" d="m355 385c4.9-3 4.7-5.4 4-10 0.1 4-0.5 7.5-4 10z"/>
	</g>
	<g>
		<path class="s121" d="m394 393c1.9-2.3 1.8-4.9 2-8-0.4 2.4-1.9 5-2 8z"/>
	</g>
	<g>
		<path class="s122" d="m372 401q0-1.5 0-3c0-3.2-0.5-6.4-1-9 0.3 3.9 0.7 8.7 1 12z"/>
	</g>
	<g>
		<path class="s123" d="m236 398c-0.5-2.4-1.4-5-2-7 0.4 2.8 1.2 4.7 2 7z"/>
	</g>
	<g>
		<path class="s124" d="m248 400c-0.1-1 0-2 0-3-0.3-1.4-2.5-3.6-3-5 0.7 2.9 2.1 5.5 3 8z"/>
	</g>
	<g>
		<path class="s125" d="m334 397c-3.4-0.1-3.6-0.9-4-4-0.5 4-0.8 5.3 4 4z"/>
	</g>
	<g>
		<path class="s126" d="m389 396q0 1.5 0 3c2.2-0.1 2.2-2.9 3-4-0.9 0.4-2.3 0-3 1z"/>
	</g>
	<g>
		<path class="s127" d="m372 401q0 3 0 6c0.3-2.8 0.3-6.1 0-9q0 1.5 0 3z"/>
	</g>
	<g>
		<path class="s128" d="m143 412c2 0 7.3-1.8 8-4 0.4-1.6-0.2-3.4 0-5-1.9 0.8-0.6 3.4-1 5-2.6 1.2-5.4 1.4-7 4z"/>
	</g>
	<g>
		<path class="s129" d="m320 411c-0.1-2.7-0.8-5.9-1-8 0 2.9 0.7 5.8 1 8z"/>
	</g>
	<g>
		<path class="s130" d="m363 422c0.5-5.3 0.5-11.6 0-17q0 8.5 0 17z"/>
	</g>
	<g>
		<path class="s131" d="m143 412c0 0-0.7 0.3-1 0-2.2 2.7 7.9 0.5 9-4-0.7 2.2-6 4-8 4z"/>
	</g>
	<g>
		<path class="s132" d="m295 438c1.2-1.7 2.6-4.1 5-4-0.1 1 0.5 2.7-1 3 0.8 2.7 2.1 5 2 8-0.1 4.1-2.8 6.1-5 9-15.6 22.4-46 40.5-45 70 6.9-6.8 9.8-16.6 15.8-24.3 5.9-7.6 12.1-13.6 18.9-20.9 6.9-7.4 12.2-13.2 18.4-21.7 6.2-8.5 7.4-21.4 5.7-31.9-1.8-10.5-16.7-20-17.8-6.2-1.1 13.8-7 17.4-9 30 5.6-0.9 8.9-6.8 12-11z"/>
	</g>
	<g>
		<path class="s133" d="m371 419c0.4-2 1-4.4 1-7-0.2 1.6-0.8 4.8-1 7z"/>
	</g>
	<g>
		<path class="s134" d="m218 444c0.7-3.6 0.3-7.4 0-11 0 3.6 0.3 7.4 0 11z"/>
	</g>
	<g>
		<path class="s135" d="m367 433c-1.7 2.1-3.1 2.1-4 0-1.9 0.8-0.6 3.4-1 5 2.8 0.1 4.1-2.9 5-5z"/>
	</g>
	<g>
		<path class="s136" d="m295 438c2.1-2.3 2.8-2.6 4-1 1.5-0.3 0.9-2 1-3-2.4-0.1-3.8 2.3-5 4z"/>
	</g>
	<g>
		<path class="s137" d="m296 454c2.2-2.9 4.9-4.9 5-9-0.3 2-3.8 6.8-5 9z"/>
	</g>
	<g>
		<path class="s138" d="m207 458c1-3.7 1.8-7.7 2-12-0.4 3.3-1.4 8.1-2 12z"/>
	</g>
	<g>
		<path class="s139" d="m328 462c-1.9-0.5-1.9 1.4-3 2 1.2-3.4-0.6-4.8-1-8-1.6 3.9-1.7 9.4-2 14 3.4-0.5 5.1-5 6-8z"/>
	</g>
	<g>
		<path class="s140" d="m205 470c1.3 2.8 3.6 1 5-1-1.9 0.8-3.3 1-5 0 0 0 0 0.5 0 1z"/>
	</g>
	<g>
		<path class="s141" d="m205 470c-0.2 1.2 0.4 2.1 1 3 1.9-0.9 4.2-1.8 5-4 0 0-0.6-0.2-1 0-1.4 2-3.7 3.8-5 1z"/>
	</g>
	<g>
		<path class="s142" d="m239 517c-0.7 2.7 1.9 3.4 3 5 1.9-1.7 0.8-5.5 1-8-0.5 1.3-2.6 4.4-4 3z"/>
	</g>
	<g>
	</g>
	<g>
		<path class="s143" d="m152 10c1.2-1 3.7 1.8 3 3 0-0.2-0.8-9.2-3-3z"/>
	</g>
	<g>
		<path class="s144" d="m152 12c0.4 1.1 2.5 0.5 3 1 0.7-1.2-1.8-4-3-3-0.2 0.4 0.1 1.5 0 2z"/>
	</g>
	<g>
		<path class="s145" d="m126 228c0.2 0.6 0.8 1 1 2 1 2.6 2.6 5.7 2 9q2 0 4 0c0-2.7 0.1-5.3 0-8-0.3-15.2-8.5-28.4-11-43-0.7-2.3-2.6-5.2-3-8-2.3-16.6 0.5-33.7 9.1-46.9 8.6-13.2 15.6-23.4 18.9-38.1 1.1-4.8 2.7-9.7 4-14 1.5-8.4 2-12 3-21 1.1-9 8.8-0.6 7.7 6.3-1.2 6.9 2.8 15.7 1.3 22.7-1.5 7-0.9 14-2.2 20.8-1.4 6.8-3.2 12.6-4.8 19.2-1.6 6.6-1.8 13.5-4.2 19.8-2.5 6.3-3.1 13.5-3.8 20.2-0.7 6.7 2.1 13.1 4.2 18.8 2.2 5.7 9.8 9.8 14 4.4 4.2-5.4 2.6-13.1 5-19 2.5-5.9 4.4-11 5.8-17.2 1.2-5.4 2.7-5.9 6-10 1.2-2 2.5-3.9 4-6 2.1-2.9 2.3-4.9 7-5 1.4 1.7 0.9 4 1 6 1.4 18.7-9.5 34-14 51-0.8 5.7 0 12.2 0 18 0 19.1 8.6 35.3 9 54 0.6 4.9 0.9 10.2 0 15-0.6 8.3-3 12.3-5.7 20.3-2.8 7.9 5.9 4.4 9.5-1.6 3.5-5.9 6.1-11.2 6.2-18.7 0.1-7.5 2-16.2-0.7-23.3-2.6-7.1-2.2-13.5-4.5-20.5-2.3-6.9-3.3-13.8-3.8-21.2-0.4-2.3-1-5.1-1-8 0-19.7 13.3-35 15-54 0.7-8.1 1-15.8 1-24 1-9-2.2-17.7-6-25-3.8-7.3 0.2-17.6-7-23-0.8 2.4-1.4 4.6-2 7-0.3 2.5-0.8 6.2-1 8 0 5.2-0.4 10-1 15-0.4 3.4-0.1 7.7-3 10-0.3 4.5-3.6 6.8-6 10-5.5 7.9-8.5 19.1-17 24 0.1-17 6.4-33.5 8-51 0.2-2.2 0.8-5.4 1-7 0.3-13-1.1-24.7-3-37-0.8-2.9-1.6-5.6-2-9-1.5-13.3-10.6-24.2-12-37-0.5-0.5-2.6 0-3-1-5.9 25.4-4.3 54.7-13 79-8.7 24.2-21.7 37.5-28.7 62.3-7 24.8 13.1 51.5 15.7 74.7z"/>
	</g>
	<g>
		<path class="s146" d="m348 44c2.2 0.7 1.7-2.7 4-2-0.2 2.6 0.3 9.5 2 9-0.7-2.4-1.2-5.3-1-8 0 0 0-0.5 0-1-3.4-1.5-1.8-6.9-2-10-1.2-5.6-0.8-12.3-4-17-1.7 9.5-0.3 19.5 1 29z"/>
	</g>
	<g>
		<path class="s147" d="m353 42c0.3-3.7-1.3-6.9-2-10 0.2 3.1-1.4 8.5 2 10z"/>
	</g>
	<g>
		<path class="s148" d="m348 44c1.8 6 2.2 12.5 2 19-2.9 1.2-6.4 1.1-7 5-4.2 0.6-8-0.8-12-1 5.6 3.8-1.9 13.8 0 17 3.7-1.1 6.8-1.5 10-1 2.9 0.5 7.1 3 8 0 0.5-3.3-6.6-7.6-1.2-12.2 5.4-4.6 6.3 2.2 7.2 7.2 2.9 15.6 8.9 30.1 14 45 1.4 2.9 2.8 5.7 4 9 5.1 10.8 10.4 23.3 13 35 1.6 4.6 3 9.9 4 15 1.3 6.3 2.9 12.4 3 19 0.9 7.5 1.3 16.6 0 24-1 14.9-10.2 29.1-18.3 40.8-8 11.6-21.6 17.7-27.7 30.2-0.2 0.4 0 1 0 1-1.2 1.5-4.3 7.6-6 5-0.1 0 0.1-1.5 0-2-2.7-1.3-2.8 1.4-2 3-2.1-0.4-3-4.1-1-5 3.2-21.9 16-39.8 16-63q0-5 0-10c0-1 0.1-2.1 0-3-0.4-2.6-0.7-5.2-1-8-1.3-12.9-8.2-29.7-6.7-39.3 1.5-9.6-4.8-12.7-6-20-1.2-7.3-4-13.7-8.3-14.7-1.1-4.3-1.4-8.8-3-13-7.7 5.2-6.7 18.8-8 29-1.3 10.2-0.5 24-3 34-2.5 9.9-3.5 20.6-7.1 29.9-3.5 9.4-6.6 17-11.7 25.4-5 8.3-9.5 14.5-13.2 23.7-3.7 9.2-4.6 21.5-4 32 0.4 3.2 2.2 7.5 3 11 6.9 22.8 16.6 44.7 14 70 15.2-8.1 9.1-34.4 4-48-2-3.4-3.3-4.6-4-9-1.6-9.9-5.2-18.9-6-29-0.5-2.6-0.3-4.6 0-7 0.8-20.1 14-34.3 22.1-51.9 8.1-17.7 11.5-38.6 16.9-57.1 7.4 12.5 11 28.8 11 44 0.6 5.7 1 12.3 0 18-1.6 22.8-16 41.9-16 65 0 2.3-0.1 4.7 0 7 0.5 8.4 2.6 10.1 5.2 18.8 2.6 8.6 8.4 2.3 9-4.6 0.7-6.8 6.9-9.3 9.8-14.2 1.4-4.8-0.1-6.3 3-10 12.4-16.2 29.4-29.6 40-47 4.3 1.6 8.3-2.9 12-5 3.2-2.6 4.1-5.3 5-9 0.3-2.8-0.3-6.8-1-10-0.3-1.5-0.6-2.6-1-4 0.2 0.1-3.2 1.2-3 1-0.5 1.6 0 4.6-3 4q0-3.5 0-7c-0.1-3.8 0.7-8 1-11 0-6.5-0.2-12.7-1-19-0.3-2.3-2.2-5.8 1-8-1.2-0.7-2.6-1.6-3-3-5.8-13.9-8.8-30.1-15.2-43.8-6.5-13.6-12.5-26.9-16.8-41.2-1.3-2.6-3.2-3.7-4-7-2.1-8.8-5.3-17.2-7-26-0.9-2.2-3.3-8.3-6-6 2.8-2.3 2-4.2 3-8 0.2-0.9 0.1-2.1 0-3-0.3-0.2-1 0-1 0-1.7 0.5-2.2-6.4-2-9-2.3-0.7-1.8 2.7-4 2z"/>
	</g>
	<g>
		<path class="s149" d="m354 51c0 0 0.7-0.3 1 0-0.2-2.8-1-5.8-2-8-0.2 2.7 0.3 5.6 1 8z"/>
	</g>
	<g>
		<path class="s150" d="m169 59c-0.5-3.1-1.4-6.4-2-9 0.4 3.4 1.2 6.1 2 9z"/>
	</g>
	<g>
		<path class="s151" d="m358 68c-0.9-4.6-2.2-9.8-3-14-1 3.8-0.2 5.7-3 8 2.7-2.3 5.1 3.8 6 6z"/>
	</g>
	<g>
		<path class="s152" d="m349 83c-1.6-4-4.3-13 3-13-0.7 3.2 2.2 5.7 3 8-0.9-5-1.8-11.8-7.2-7.2-5.4 4.6 1.7 8.9 1.2 12.2z"/>
	</g>
	<g>
		<path class="s153" d="m270 78c2.8-3.9 4.1-0.9 8-2 0.1 1.4 0.7 3.3 2 4-2.4-7-8.1-9.6-10-2z"/>
	</g>
	<g>
		<path class="s154" d="m270 78c-2.3 9.2-4.2 18.9-7 28-0.8 2.7-2.1 5.6-3 8-5.3 19.9-12.3 39.6-5 60 7.4 20.4 11.4 40 11 62-0.1 2.7-0.6 5-1 7 0 1 0 2 0 3 0.1 2.5-0.8 5.3-1 7 0.2 4.7-0.6 9.7 1 14 5.2-0.9 8.6-5.2 12-9 2.1-2.9 3.7-5.4 6-8 1-1.4 2.2-2.6 3-4 15.6-26 20-55 21-86 1-31-17.7-53.1-27-80-1.3-0.7-1.9-2.6-2-4-3.9 1.1-5.2-1.9-8 2zm11 24c7.1 15.4 14.3 32.6 15 50 1 7.3 0.7 15.8 0 23 0 10.5-1.9 23.2-5.3 32.7-3.4 9.4-4.8 19.7-12.7 25.3-3.7-21.5-5.1-41.4-13-62-7.8-20.6 1.1-43.4 7-63 0.7-3.7 1.1-7.3 2-11 3.3-0.3 6.1 1.9 7 5z"/>
	</g>
	<g>
		<path class="s155" d="m147 95c1.5-4.3 3.1-9.1 4-14-1.3 4.3-2.9 9.2-4 14z"/>
	</g>
	<g>
		<path class="s156" d="m331 84c1.5 2.5 7.5-1 10-1-3.2-0.5-6.3-0.1-10 1z"/>
	</g>
	<g>
		<path class="s157" d="m190 95c0.2-1.8 0.7-5.5 1-8-0.6 2.4-1 5-1 8z"/>
	</g>
	<g>
		<path class="s158" d="m369 101c-0.8-2.8-3.1-4.8-4-7 0.8 3.3 2.8 4.4 4 7z"/>
	</g>
	<g>
		<path class="s159" d="m171 103c0.3-1.9 0.9-4.4 1-7-0.2 1.6-0.8 4.8-1 7z"/>
	</g>
	<g>
		<path class="s160" d="m272 108c0.9-2.9 1.9-8.6 6-9 0.7 1.2 1.6 2.6 3 3-0.9-3.1-3.7-5.3-7-5-0.9 3.7-1.3 7.3-2 11z"/>
	</g>
	<g>
		<path class="s161" d="m272 108c-5.9 19.6-14.8 42.4-7 63 7.9 20.6 9.3 40.5 13 62 7.9-5.6 9.3-15.9 12.7-25.3 3.4-9.5 5.3-22.2 5.3-32.7 0-7.7 0.3-15.4 0-23-0.7-17.4-7.9-34.6-15-50-1.4-0.4-2.3-1.8-3-3-4.1 0.4-5.1 6.1-6 9z"/>
	</g>
	<g>
		<path class="s162" d="m260 114c0.9-2.4 2.2-5.3 3-8-1.1 2.6-2.2 5-3 8z"/>
	</g>
	<g>
		<path class="s163" d="m186 119c-0.1 0.5 0 1 0 1 2.9-2.3 2.6-6.6 3-10-0.6 2.6-2.3 6-3 9z"/>
	</g>
	<g>
		<path class="s164" d="m180 130c2.4-3.2 5.7-5.5 6-10 0 0-0.1-0.5 0-1-3.3 2.3-5 8.6-6 11z"/>
	</g>
	<g>
		<path class="s165" d="m216 130c0 0 1 0 1 0 0-0.5-0.1-1.5 0-2 0.4-2.2 1.4-4.6 3-6-2.9-2.1-3.8 6-4 8z"/>
	</g>
	<g>
		<path class="s166" d="m217 128c1.1-2 3.3-3.6 4-6 0 0-0.7 0.2-1 0-1.6 1.4-2.6 3.8-3 6z"/>
	</g>
	<g>
		<path class="s167" d="m217 128c-0.1 0.5 0 1.5 0 2 0 10.3-2.2 20.6-4 30-3.8 19.7-14.8 39.9-12 61 2.9 21.1 13 38.2 13 60 0.3 3.1 1 7.3 1 11 0 10.6-1 20.7-1 31 0.3-0.3 1 0 1 0 5 1.5 10.2-0.8 15-4 2.2-2.6 3.6-4.9 5-8 1.2-2.6 2.7-3 4-5 2.6-6.8 5.4-13.3 8-20 0.6-5.9 2.5-11.7 4-18 0.6-2.6 1.4-5.4 2-8 0.1-0.5-0.1-1.5 0-2 1.9-7.9 3.5-17.9 4-25 1.7-26.8-7.8-49.7-18-74-0.9-2.2-3-3.7 0-6-4.6-1.5-2.6-6.7-4-11-1.9-5.5-3.2-14.4-10-14 0.3-2.8-1.3-5.3-4-6-0.7 2.4-2.9 4-4 6zm9 162c-0.8-2.4-0.8-5-1-8-0.9-11-3.7-23.3-6-34-2.3-10.7-5.6-22.2-7-33-1.4-10.8 3.4-22.8 6-32 2.6-9.3 6-27.4 12.8-16.8 6.7 10.7 7.4 17.7 11.1 28.9 3.8 11.1 4.1 23.9 4.1 35.9 0 12-2.8 23.9-5 35-2.2 11.1-7.2 18.7-11 29-2.7 0.2-3.7-2.9-4-5z"/>
	</g>
	<g>
		<path class="s168" d="m373 132c-1.2-3.3-2.6-6.1-4-9 1.1 3.1 2.7 6.3 4 9z"/>
	</g>
	<g>
		<path class="s169" d="m205 152c1.6-7.8 1.8-16 1-24 0 8.2-0.3 15.9-1 24z"/>
	</g>
	<g>
		<path class="s170" d="m213 160c1.8-9.4 4-19.7 4-30 0 0-1 0-1 0-0.9 10-2.3 21-3 30z"/>
	</g>
	<g>
		<path class="s171" d="m187 140c2.4-0.9 4.4-2.8 7-3-0.8 1.5 0.8 3.2 1 4-0.1-2 0.4-4.3-1-6-4.7 0.1-4.9 2.1-7 5z"/>
	</g>
	<g>
		<path class="s172" d="m239 159c-0.4-0.5 6.3 3.1 4 1-2.8-5.9-5.3-12.5-8-18 1.4 4.3-0.6 9.5 4 11-3 2.3-0.9 3.8 0 6z"/>
	</g>
	<g>
		<path class="s173" d="m177 156c1.3-3.4 4-6.7 6-10-3.3 4.1-4.8 4.6-6 10z"/>
	</g>
	<g>
		<path class="s174" d="m296 175c0.7-7.2 1-15.7 0-23 0.3 7.6 0 15.3 0 23z"/>
	</g>
	<g>
		<path class="s175" d="m239 159c10.2 24.3 19.7 47.2 18 74-1.3 3.6 2.2-2 2-3q0 3 0 6c1.3-7.2 0.8-15.4 0-23-0.9-2.6-3.4-5.4-2-9 2 0.5-0.1 3.6 2 4 0-2.2 0.4-4.4-1-6-2.5 2.5-2-2.3-2-4 1.7 0.2 0.2 2.8 2 3-0.8-5-2.4-9.6-4-14-0.2-0.4-1.7-4.5-2-6-2.7-7.3-5.8-14.2-9-21 2.3 2.1-4.4-1.5-4-1zm20 56q0 7 0 14c-1.6-3.6-1.7-10.5 0-14z"/>
	</g>
	<g>
		<path class="s176" d="m411 187c-1.1 0.3-3.1 2.3-4 3 5 0.9 11 1.1 15 4 3.9 0.3 4.5 4.1 3 7 11.2-1.1 9.5 12 13 19 4.1-4.5 0.4-14.8 7-18 2.1-1 3.7-0.5 6 1 0.3-4.3 2.9-11 8-11 1-0.1 2 0 3 0 1.1-0.2 6.6-1.8 4-4-3.8-1.6-8.2-0.9-12-3-3.7-2-3.1-2.6-3-6 2.4-2.7-0.5-4.8-2-7-8.3 9.2-8-7.6-11-12-2.9 5.3-2.8 22.5-13 15 2.2 8.7-5.6 12.9-14 12z"/>
	</g>
	<g>
		<path class="s161" d="m225 282c0.4 2.1 0.5 5.4 1 8 0.3 2.1 1.3 5.2 4 5 3.8-10.3 8.8-17.9 11-29 2.2-11.1 5-23 5-35 0-12-0.3-24.8-4.1-35.9-3.7-11.2-4.4-18.2-11.1-28.9-6.8-10.6-10.2 7.5-12.8 16.8-2.6 9.2-7.4 21.2-6 32 1.4 10.8 4.7 22.3 7 33 2.3 10.7 5.1 23 6 34z"/>
	</g>
	<g>
		<path class="s177" d="m390 182c-1-5.1-2.4-10.4-4-15 1.2 5.3 2.4 10.3 4 15z"/>
	</g>
	<g>
		<path class="s178" d="m454 185c-2.2-1.6-2.6-3.3-3-6-0.1 3.4-0.7 4 3 6z"/>
	</g>
	<g>
		<path class="s179" d="m122 188c-0.5-2.9-2.5-5.9-3-8 0.4 2.8 2.3 5.7 3 8z"/>
	</g>
	<g>
		<path class="s180" d="m254 187c-0.7-2-1.3-4-2-6 0.3 1.5 1.8 5.6 2 6z"/>
	</g>
	<g>
		<path class="s181" d="m401 186c0.4 1.4 1.8 2.3 3 3-3.2 2.2-1.3 5.7-1 8 0.2-10.4 10.7-5.6 18-3 0.4 0.2 1 0 1 0-4-2.9-10-3.1-15-4 0.9-0.7 2.9-2.7 4-3-3.7-0.4-5.1-3-6 2-0.9-0.9-3.3-1.9-4-3z"/>
	</g>
	<g>
		<path class="s182" d="m462 192c2.6 0.6 4.5-1.3 7-1 0.6-2.4-1.7-2.4-3-3 2.6 2.2-2.9 3.8-4 4z"/>
	</g>
	<g>
		<path class="s183" d="m181 210c0-5.8-0.8-12.3 0-18-1.5 5.7-0.6 12.4 0 18z"/>
	</g>
	<g>
		<path class="s184" d="m445 202c3.1-0.6 5 2.6 8 2-1.3-3.2 2.2-10.9 6-12-5.1 0-7.7 6.7-8 11-2.3-1.5-3.9-2-6-1z"/>
	</g>
	<g>
		<path class="s185" d="m425 201c1.5-2.9 0.9-6.8-3-7 0 0-0.6 0.2-1 0 3.4 1.6 1.8 5.1 4 7z"/>
	</g>
	<g>
		<path class="s186" d="m258 202c0 0 0.1-0.5 0-1-1.8-0.2-0.3-2.8-2-3 0 1.7-0.5 6.5 2 4z"/>
	</g>
	<g>
		<path class="s187" d="m393 225c1.3-7.4 0.9-16.5 0-24 0.2 7.9 0.5 16.1 0 24z"/>
	</g>
	<g>
		<path class="s188" d="m259 213c-0.2-1.6 0-3.3 0-5-2.1-0.4 0-3.5-2-4-1.4 3.6 1.1 6.4 2 9z"/>
	</g>
	<g>
		<path class="s189" d="m191 214c-0.2-2.6-0.8-6-1-8 0 2.9 0.6 5.7 1 8z"/>
	</g>
	<g>
		<path class="s190" d="m85 213c1.1 0.6 3.7 0.7 5 1-2.4-0.5-4.7-4.7-5-1z"/>
	</g>
	<g>
		<path class="s191" d="m90 215c1.3 0.3 3.3 0.4 5 1 1.7 0.6 4.4-2.1 5-2-2.8-1.4-6.3 1.8-10 1z"/>
	</g>
	<g>
		<path class="s192" d="m102 227c-0.5-1.4-2.7-2.8-2.6-4.7 0.1-2 2.6-4.1 2.6-5.3-0.3-2.6-0.1-2-2-3-0.6-0.1-3.3 2.6-5 2-1.7-0.6-3.7-0.7-5-1-1.3-0.3-3.9-0.4-5-1 2.1 6.2 1.9 11.9 0 18 5.9-3.3 11.9-1 18 0 0.3-1.9-0.8-3.3-1-5z"/>
	</g>
	<g>
		<path class="s193" d="m354 222c0.9-3.8 0.1-4.5-1-8 0.3 2.8 0.6 5.4 1 8z"/>
	</g>
	<g>
		<path class="s194" d="m259 215c-1.7 3.5-1.6 10.4 0 14q0-7 0-14z"/>
	</g>
	<g>
		<path class="s195" d="m403 227c0.2-2 1-5.3 1-8q0-1.5 0-3c-0.3 3-1.1 7.2-1 11z"/>
	</g>
	<g>
		<path class="s196" d="m102 227c-0.5-3.6 0.4-6.7 0-10 0 1.2-2.5 3.3-2.6 5.3-0.1 1.9 2.1 3.3 2.6 4.7z"/>
	</g>
	<g>
		<path class="s197" d="m403 227q0 3.5 0 7c3 0.6 2.5-2.4 3-4 0.5-1.5 1.2-3.3 1-5-0.9-1-2.3-2.6-3-6 0 2.7-0.8 6-1 8z"/>
	</g>
	<g>
		<path class="s198" d="m343 242c1-5.7 0.6-12.3 0-18 0 5.9 0.4 12.1 0 18z"/>
	</g>
	<g>
		<path class="s199" d="m354 235c0.2-1.5 1.1-3.8 1-6-0.1-1.6-0.8-3-1-4q0 5 0 10z"/>
	</g>
	<g>
		<path class="s200" d="m406 230c-0.2 0.2 3.2-0.9 3-1-0.7-2.4-0.4-2.2-2-4 0.2 1.7-0.5 3.5-1 5z"/>
	</g>
	<g>
		<path class="s201" d="m130 248c0.7-2.8-2.3-13.8-3-18-0.2-1-0.8-1.4-1-2 0.5 4.1 0.4 9 1 13 0.7 3.9 0.8 8.8 3 7z"/>
	</g>
	<g>
		<path class="s202" d="m149 266c-0.3 4.9-1.8 8.8-3 13-1.9 11.9-7.8 22.3-10 34-0.6 3.1-1 5.7-3 8 0 0 0.1 0.5 0 1-0.4 2.1-1.9 3.2-3 5-3-1.9-7.6-0.2-10-3-6.4 1.6-9.6-5.1-7-10-11 6.3-10.2-10.9-13-17-4.2 5.8-2.5 22-14 17 3.2 8-2 10.5-9 11-1.5 0.3-6.4 1.1-8 2 1.5 0.1 9.4 4.1 12 5 5.9-0.8 6.8 4.8 5 9 0.8 0.3 2.2-0.4 3 0 3.9 1.3 4.9-1 7 5 1.6 3.8 0.9 9.2 4 12 2.5-6.1 2.2-19.2 13-17-1.4-3.9 2.3-5.8 3-9 2.5 0.1 4.7-0.6 7-1 5.8-1.1 7.1-1.6 7 4-0.1 4.3-0.7 7.9-1 12-0.5 7.8-0.5 16.3 0 24 0.9 13.2 2.7 31.4 13 41 0.3 0.3 1 0 1 0 1.6-2.6 4.4-2.8 7-4 0.4-1.6-0.9-4.2 1-5 2.9-8.2 7.7-15.7 14-22 1.6-2.5 7.2-8.4 9-12 1.3-2 1.5-5 0-7-9.4 6-19.8 14.3-26 24-6.2 9.7-7.3 0.3-8-6-0.4-2-1.3-4.3-1-7 0 0 0.2-0.6 0-1-1.8-4.9-3.1-20.9 0-25 0 0 0-0.5 0-1 0-3 0.3-5.6 1-8 2.7-11.7 4.7-24.2 9-36 4.3-11.8 8.4-24.4 9-37 0.6-12.7 0.1-29.8-9-37-2.8 11.9 0.7 24.9 0 38z"/>
	</g>
	<g>
		<path class="s203" d="m354 235c0 23.2-12.8 41.1-16 63 1.4 1.2 2.4-0.9 3 2 0.1 0.5-0.1 2 0 2 1.5 0.4 4.5-4 6-5 0 0-0.2-0.6 0-1-2 0.7-3 3.2-5 4 0.1-12.5 6.2-22.5 10-34 3.9-11.4 6.3-26.6 3-37 0.1 2.2-0.8 4.5-1 6z"/>
	</g>
	<g>
		<path class="s204" d="m130 248c1.9-1.5 2.7-3.5 3-6 0.1-1 0-2 0-3q-2 0-4 0c0.6-3.3-1-6.4-2-9 0.7 4.2 3.7 15.2 3 18z"/>
	</g>
	<g>
		<path class="s205" d="m257 233c-0.5 7.1-2.1 17.1-4 25 1.3-0.7 1.7-0.8 3 0 0.1-2.7 0.4-6 2-8 0.3-4.8 0.2-9.4 1-14q0-3 0-6c0.2 1-3.3 6.6-2 3z"/>
	</g>
	<g>
		<path class="s206" d="m133 239c0 1 0.1 2 0 3 1-3.8 0.4-7.3 0-11 0.1 2.7 0 5.3 0 8z"/>
	</g>
	<g>
		<path class="s207" d="m411 243c0.6-2.7 1.9-5.9 0-9-0.2-0.3-0.9-0.7-1-1 0.7 3.2 1.3 7.2 1 10z"/>
	</g>
	<g>
		<path class="s208" d="m411 243c-0.9 3.7-1.8 6.3-5 9 3-1.8 6.7-4.8 8-8-0.1-3.4 2-13.1 8-8-1.9-4.1-6.7-0.9-9 1 0.7-1.8-1.3-2.1-2-3 1.9 3.1 0.6 6.3 0 9z"/>
	</g>
	<g>
		<path class="s209" d="m414 244c-0.3 4.7 1.9 15.8 7 8 4.8 8.9 10.5-3.1 16 2 1.6-5.3 11-5 6-10-0.1 0-5.9 1.4-5-2 1-3.4 0.3-6.2-2-7-5.4-0.9-3.8 4.7-7.8 7.2-3.9 2.5-4.5-4.2-6.2-6.2-6-5.1-8.1 4.6-8 8z"/>
	</g>
	<g>
		<path class="s210" d="m443 244q-2 0-4 0c-0.4-3.5 1.5-8.3-3-9 2.3 0.8 3 3.6 2 7-0.9 3.4 4.9 2 5 2z"/>
	</g>
	<g>
		<path class="s211" d="m265 243c0.4-2 0.9-4.3 1-7-0.2 1.8-1.1 4.5-1 7z"/>
	</g>
	<g>
		<path class="s212" d="m264 253c0.2-1.8 1.1-4.5 1-7-0.4 2-0.9 4.3-1 7z"/>
	</g>
	<g>
		<path class="s213" d="m283 250c-1.2 1.6-1.9 3.4-3 5 2.2-1.9 4.8-5.6 6-9-0.8 1.4-2 2.6-3 4z"/>
	</g>
	<g>
		<path class="s214" d="m253 258c-0.1 0.5 0.1 1.5 0 2 1.9 1.5 1.8 1.8 1 5 2.2-4.6 3.6-9.6 4-15-1.6 2-1.9 5.3-2 8-1.3-0.8-1.7-0.7-3 0z"/>
	</g>
	<g>
		<path class="s215" d="m277 258c0.9-1 2.2-1.9 3-3 1.1-1.6 1.8-3.4 3-5-2.3 2.6-3.9 5.1-6 8z"/>
	</g>
	<g>
		<path class="s216" d="m251 268c0.3-0.3 2.7-0.3 3-1 0.1-0.5-0.1-1.5 0-2 0.8-3.3 0.9-3.5-1-5-0.6 2.6-1.4 5.4-2 8z"/>
	</g>
	<g>
		<path class="s217" d="m418 268c-2.1 0.9-4.4 2.1-7 3-7.4 3.6-10.7 5-17.9 10.1-7.2 5-3.5 10.7 6.2 5.2 9.7-5.5 8 4.8 2.9 9.9-5 5.2-6 11.5-9.2 17.8-3.2 6.2-4.4 15-5 22-0.6 7.6 0 15.4 0 23q0 5 0 10c0.7 7.7-0.8 18.9 1 27 0.7-1 2.1-0.6 3-1 0.2-0.1 2-1 2-1 0 0 0-0.5 0-1 0.1-3 1.6-5.6 2-8 1-17.6-2.1-41.7 2-58 4.1-16.3 11.8-25.3 20-39 2.1-3.6 3.6-4.5 7-6 5.8 0.3 6.7-8.1 11.9-9.1 5.3-0.9 11.9-3.5 11.1-9.9-10.1 1.3-20.4 2.2-30 5z"/>
	</g>
	<g>
		<path class="s218" d="m190 279c0.9-4.8 0.6-10.1 0-15 0.1 4.9 0.3 10.1 0 15z"/>
	</g>
	<g>
		<path class="s219" d="m146 279c1.2-4.2 2.7-8.1 3-13-0.5 3.8-2.3 8.7-3 13z"/>
	</g>
	<g>
		<path class="s220" d="m251 268c-1.5 6.3-3.4 12.1-4 18 2.3-6 5.5-12.4 7-19-0.3 0.7-2.7 0.7-3 1z"/>
	</g>
	<g>
		<path class="s221" d="m411 271c2.6-0.9 4.9-2.1 7-3-2.7 0.8-4.7 1.9-7 3z"/>
	</g>
	<g>
		<path class="s185" d="m215 292c0-3.8-0.7-7.9-1-11 0 3.8 0.7 7.9 1 11z"/>
	</g>
	<g>
		<path class="s222" d="m226 290c-0.5-2.6-0.6-5.9-1-8 0.2 3 0.2 5.6 1 8z"/>
	</g>
	<g>
		<path class="s223" d="m418 288c1.4-1.8 5.2-4.9 7-6-3.4 1.5-4.9 2.4-7 6z"/>
	</g>
	<g>
		<path class="s224" d="m293 296c-0.2-2.3 0-4.7 0-7-0.3 2.4-0.5 4.4 0 7z"/>
	</g>
	<g>
		<path class="s225" d="m341 302c1.7 2.6 4.8-3.5 6-5-1.5 1-4.5 5.4-6 5z"/>
	</g>
	<g>
		<path class="s226" d="m234 391c0.6 2 1.5 4.6 2 7 4.3 18.9 14.4 38.4 12 59-2.4 20.6-15.6 39.5-9 60 1.4 1.4 3.5-1.7 4-3 1-13 6.5-24.6 10-37 3.6-12.4 5.1-27.4 4.8-40.8-0.4-13.4-8.5-23.4-9.8-36.2-0.9-2.5-2.3-5.1-3-8-1.1-4.5-1.7-9.3-2-14-0.6-4-0.4-8.2 0-12 0-9.9 2.5-19.3 5-28 1.7-6 4-28 11-16 7.1 12.1 12.7 24.1 13 39 0.2 1.8 0.9 4.6 1 7 0.1 7.7 2.8 14.5 6.2 6.2 3.4-8.3 2.8-9.9 2.8-18.2-0.3-2.8-1.5-6.8-2-10-0.5-16.3-15.8-27.1-14-44-4.1 0.9-8.4-10-13.7-0.7-5.3 9.3-10.7 21.8-14.3 31.7-3.6 9.9-2.3 10.6-4.1 18.9-1.8 8.4-1.6 11.2-1.9 19.1-0.3 7.9 0.9 12.8 2 20z"/>
	</g>
	<g>
		<path class="s227" d="m341 300c-0.6-2.9-1.6-0.8-3-2-2 0.9-1.1 4.6 1 5-0.8-1.6-0.7-4.3 2-3z"/>
	</g>
	<g>
		<path class="s228" d="m285 312c-0.8-3.5-2.6-7.8-3-11 0.3 4.6 1.7 7.3 3 11z"/>
	</g>
	<g>
		<path class="s229" d="m351 314c2.9-4.9 1.8-7.2 3-10-3.1 3.7-1.6 5.2-3 10z"/>
	</g>
	<g>
		<path class="s230" d="m235 311c0.6-0.7 2.5-1.3 3-2 0.4-0.9 0.6-2.1 1-3-1.3 2-2.8 2.4-4 5z"/>
	</g>
	<g>
		<path class="s231" d="m327 314c-0.1-2.3 0-4.7 0-7-0.2 2.3-0.4 4.5 0 7z"/>
	</g>
	<g>
		<path class="s232" d="m372 308c1.8 0.3 2.9 3.5 3 5 0.2-3.5 0.1-5.9-3-5z"/>
	</g>
	<g>
		<path class="s233" d="m359 375c0.7 4.6 0.9 7-4 10-5.9 3.6-14.4 10.2-21 12-4.8 1.3-4.5 0-4-4 1.5-12.7 8.5-24.1 9-37 0.1-2.1 1-10.8-1-12-1.6-0.4-2.5 1.4-4 1-3.7 19.8-15 37.3-15 58 0.2 2.1 0.9 5.3 1 8 0.6 15.1 5.5 29.3 4 45 0.4 3.2 2.2 4.6 1 8 1.1-0.6 1.1-2.5 3-2 4.4-14.5-1.4-38.4 5.3-50.8 6.6-12.3 29.7-25.8 29.7-6.2 0.5 5.4 0.5 11.7 0 17 0 3.7 0.1 7.3 0 11 0.9 2.1 2.3 2.1 4 0 1.9-4.4 3-9.4 4-14 0.3-2.2 0.8-5.4 1-7q0-2.5 0-5 0-3 0-6c-0.3-3.3-0.7-8.1-1-12-0.9-13.2-2.9-26.5-4-40-1.1-13.5 7.3-23.7 8-36-0.1-1.5-1.2-4.7-3-5-6.2 1.7-7.5 11.9-10.7 17.3-3.2 5.5-3.8 16.5-4.3 23.7-0.5 7.2 1 18.7 2 26z"/>
	</g>
	<g>
		<path class="s234" d="m235 311c-1.4 3.1-2.8 5.4-5 8-0.8 1-2 3.4-3 4 4.8-3.8 8.5-8.5 11-14-0.5 0.7-2.4 1.3-3 2z"/>
	</g>
	<g>
		<path class="s235" d="m133 321c2-2.3 2.4-4.9 3-8-0.8 2.6-2.9 4.7-3 8z"/>
	</g>
	<g>
		<path class="s236" d="m195 317c3.8-3.1 5.7 5.8 6 8-0.2-3.5-1-14.1-6-8z"/>
	</g>
	<g>
		<path class="s237" d="m195 317c-3.8 4.7-2.6 14-4 20-1.4 6-0.1 16.6 0 23 0.2 1.6 0.8 4.8 1 7 2.5 27.7 18.1 50.1 17 79-0.2 4.3-1 8.3-2 12-0.9 3.6-2.3 7.1-2 11 1.8 1 3.1 0.8 5 0 0.4-0.2 1 0 1 0 3-8.1 6.4-16.2 7-25 0.3-3.6 0-7.4 0-11 0-18.6-6.9-33.4-12.2-50.8-5.4-17.4-3.8-38.3-4.8-57.2-0.3-2.2-2.2-11.1-6-8z"/>
	</g>
	<g>
		<path class="s238" d="m248 338c-0.3 0.4 1.8-3.1 2 0 0.6-3.2 3.9-17.2 9-16-7-12-9.3 10-11 16z"/>
	</g>
	<g>
		<path class="s239" d="m215 323c1.1 3.7 3 2.7 6 2 1.6-0.7 4.8-1.2 6-2 1-0.6 2.2-3 3-4-4.8 3.2-10 5.5-15 4z"/>
	</g>
	<g>
		<path class="s240" d="m120 324c2.4 2.8 7 1.1 10 3 1.1-1.8 2.6-2.9 3-5-2.9 4.6-8.4 2.8-13 2z"/>
	</g>
	<g>
		<path class="s241" d="m214 324c0.1 0.5 1.8 1.9 1 3 2.1 0.2 4.8-0.1 6-2-3 0.7-4.9 1.7-6-2 0 0-0.8-0.3-1 0 0 0 0.1 0.5 0 1z"/>
	</g>
	<g>
		<path class="s242" d="m221 325c-1.2 1.9-3.9 2.2-6 2 0.8-1.1-0.9-2.5-1-3-1.1 8.3 10.7 0.9 13-1-1.2 0.8-4.4 1.3-6 2z"/>
	</g>
	<g>
		<path class="s243" d="m68 328c-0.3 0.1 0.6-1.8 1-2 1.6-0.9 6.5-1.7 8-2-2.4 0.2-5.1 0.3-7.3 0.7-2.2 0.4-2.7 3.7-1.7 3.3z"/>
	</g>
	<g>
		<path class="s244" d="m303 334c-1.1-3-3.2-6.5-4-9 0.7 4.4 2 5.6 4 9z"/>
	</g>
	<g>
		<path class="s245" d="m68 328c1.2 2.2 10.7 2.5 13 3-2.6-0.9-10.5-4.9-12-5-0.4 0.2-1.3 2.1-1 2z"/>
	</g>
	<g>
		<path class="s246" d="m123 331c4.6-0.2 6-0.3 7 4 0.1-5.6-1.2-5.1-7-4z"/>
	</g>
	<g>
		<path class="s247" d="m248 338c-2.5 8.7-5 18.1-5 28 0 0.5 0 1 0 1 1-1.4 2.8-0.8 3-1 0.4-4.5 1.4-9.5 2-14-0.3 0.6-1.3 1.7-2 2 0-4.1 0.2-9 3-12 0.6-1.4 0.6-2.2 1-4-0.2-3.1-2.3 0.4-2 0z"/>
	</g>
	<g>
		<path class="s248" d="m388 359c0-7.6-0.6-15.4 0-23-1.4 7.2-0.7 15.8 0 23z"/>
	</g>
	<g>
		<path class="s249" d="m139 346c1.7-2.3 0.6-5.1 1-8-0.7 2.4-1 5-1 8z"/>
	</g>
	<g>
		<path class="s250" d="m89 341c3.3 1.8 5.1 0.8 7 5-2.1-6-3.1-3.7-7-5z"/>
	</g>
	<g>
		<path class="s251" d="m248 352c0.5-3.4 0.3-6.7 1-10-2.8 3-3 7.9-3 12 0.7-0.3 1.7-1.4 2-2z"/>
	</g>
	<g>
		<path class="s252" d="m339 356c0.3-2 3.1-10.7-1-12 2 1.2 1.1 9.9 1 12z"/>
	</g>
	<g>
		<path class="s253" d="m282 356c0-4.3-1.1-6.8-2-10 0.5 3.2 1.7 7.2 2 10z"/>
	</g>
	<g>
		<path class="s254" d="m129 371c-0.5-7.8-0.5-16.3 0-24-1.3 7.3-1.3 16.6 0 24z"/>
	</g>
	<g>
		<path class="s255" d="m139 372c2.4-3.7 0-19.3 0-25-3.1 4.1-1.8 20.1 0 25z"/>
	</g>
	<g>
		<path class="s256" d="m192 367c-0.2-2.2-0.8-5.4-1-7 0.1 2.6 0.7 5 1 7z"/>
	</g>
	<g>
		<path class="s257" d="m273 368c-0.1-2.4-0.8-5.3-1-7 0.1 2.4 0.8 5.3 1 7z"/>
	</g>
	<g>
		<path class="s258" d="m243 367c0 3.6-0.2 7.4 0 11 0.3 4.7 0.9 9.5 2 14 0.5 1.4 2.7 3.6 3 5 0.3-10.4-2.9-20.3-2-31-0.2 0.2-2-0.4-3 1z"/>
	</g>
	<g>
		<path class="s259" d="m243 378c-0.2-3.6 0-7.4 0-11 0 0 0-0.5 0-1-0.4 3.8-0.6 8 0 12z"/>
	</g>
	<g>
		<path class="s260" d="m165 381c3.8-3.8 7.2-6.9 9-12-1.8 3.6-7.4 9.5-9 12z"/>
	</g>
	<g>
		<path class="s261" d="m394 394c0 0-1.8 0.9-2 1-0.8 1.1-0.8 3.9-3 4q0-1.5 0-3c-1.8-8.1-0.3-19.3-1-27 0.6 10.3-1.3 21.2 1 31 2.2-1.3 4.5-3.4 5-6z"/>
	</g>
	<g>
		<path class="s262" d="m140 380c-0.3-2.6 0.5-5-1-7-0.3 2.7 0.6 5 1 7z"/>
	</g>
	<g>
		<path class="s263" d="m355 385c4.9-3 4.7-5.4 4-10 0.1 4-0.5 7.5-4 10z"/>
	</g>
	<g>
		<path class="s264" d="m394 393c1.9-2.3 1.8-4.9 2-8-0.4 2.4-1.9 5-2 8z"/>
	</g>
	<g>
		<path class="s265" d="m372 401q0-1.5 0-3c0-3.2-0.5-6.4-1-9 0.3 3.9 0.7 8.7 1 12z"/>
	</g>
	<g>
		<path class="s266" d="m236 398c-0.5-2.4-1.4-5-2-7 0.4 2.8 1.2 4.7 2 7z"/>
	</g>
	<g>
		<path class="s267" d="m248 400c-0.1-1 0-2 0-3-0.3-1.4-2.5-3.6-3-5 0.7 2.9 2.1 5.5 3 8z"/>
	</g>
	<g>
		<path class="s268" d="m334 397c-3.4-0.1-3.6-0.9-4-4-0.5 4-0.8 5.3 4 4z"/>
	</g>
	<g>
		<path class="s269" d="m389 396q0 1.5 0 3c2.2-0.1 2.2-2.9 3-4-0.9 0.4-2.3 0-3 1z"/>
	</g>
	<g>
		<path class="s270" d="m372 401q0 3 0 6c0.3-2.8 0.3-6.1 0-9q0 1.5 0 3z"/>
	</g>
	<g>
		<path class="s271" d="m143 412c2 0 7.3-1.8 8-4 0.4-1.6-0.2-3.4 0-5-1.9 0.8-0.6 3.4-1 5-2.6 1.2-5.4 1.4-7 4z"/>
	</g>
	<g>
		<path class="s272" d="m320 411c-0.1-2.7-0.8-5.9-1-8 0 2.9 0.7 5.8 1 8z"/>
	</g>
	<g>
		<path class="s273" d="m363 422c0.5-5.3 0.5-11.6 0-17q0 8.5 0 17z"/>
	</g>
	<g>
		<path class="s274" d="m143 412c0 0-0.7 0.3-1 0-2.2 2.7 7.9 0.5 9-4-0.7 2.2-6 4-8 4z"/>
	</g>
	<g>
		<path class="s275" d="m295 438c1.2-1.7 2.6-4.1 5-4-0.1 1 0.5 2.7-1 3 0.8 2.7 2.1 5 2 8-0.1 4.1-2.8 6.1-5 9-15.6 22.4-46 40.5-45 70 6.9-6.8 9.8-16.6 15.8-24.3 5.9-7.6 12.1-13.6 18.9-20.9 6.9-7.4 12.2-13.2 18.4-21.7 6.2-8.5 7.4-21.4 5.7-31.9-1.8-10.5-16.7-20-17.8-6.2-1.1 13.8-7 17.4-9 30 5.6-0.9 8.9-6.8 12-11z"/>
	</g>
	<g>
		<path class="s276" d="m371 419c0.4-2 1-4.4 1-7-0.2 1.6-0.8 4.8-1 7z"/>
	</g>
	<g>
		<path class="s277" d="m218 444c0.7-3.6 0.3-7.4 0-11 0 3.6 0.3 7.4 0 11z"/>
	</g>
	<g>
		<path class="s278" d="m367 433c-1.7 2.1-3.1 2.1-4 0-1.9 0.8-0.6 3.4-1 5 2.8 0.1 4.1-2.9 5-5z"/>
	</g>
	<g>
		<path class="s279" d="m295 438c2.1-2.3 2.8-2.6 4-1 1.5-0.3 0.9-2 1-3-2.4-0.1-3.8 2.3-5 4z"/>
	</g>
	<g>
		<path class="s280" d="m296 454c2.2-2.9 4.9-4.9 5-9-0.3 2-3.8 6.8-5 9z"/>
	</g>
	<g>
		<path class="s281" d="m207 458c1-3.7 1.8-7.7 2-12-0.4 3.3-1.4 8.1-2 12z"/>
	</g>
	<g>
		<path class="s282" d="m328 462c-1.9-0.5-1.9 1.4-3 2 1.2-3.4-0.6-4.8-1-8-1.6 3.9-1.7 9.4-2 14 3.4-0.5 5.1-5 6-8z"/>
	</g>
	<g>
		<path class="s283" d="m205 470c1.3 2.8 3.6 1 5-1-1.9 0.8-3.3 1-5 0 0 0 0 0.5 0 1z"/>
	</g>
	<g>
		<path class="s284" d="m205 470c-0.2 1.2 0.4 2.1 1 3 1.9-0.9 4.2-1.8 5-4 0 0-0.6-0.2-1 0-1.4 2-3.7 3.8-5 1z"/>
	</g>
	<g>
		<path class="s285" d="m239 517c-0.7 2.7 1.9 3.4 3 5 1.9-1.7 0.8-5.5 1-8-0.5 1.3-2.6 4.4-4 3z"/>
	</g>
</svg>